<?xml version="1.0" encoding="UTF-8" ?>
<!DOCTYPE svg PUBLIC "-//W3C//DTD SVG 1.1//EN" "http://www.w3.org/Graphics/SVG/1.1/DTD/svg11.dtd">
<svg width="679pt" height="488pt" viewBox="0 0 679 488" version="1.1" xmlns="http://www.w3.org/2000/svg">
<path fill="#000000" d=" M 0.00 0.00 L 679.00 0.00 L 679.00 488.00 L 0.00 488.00 L 0.00 0.00 Z" />
<path fill="#f48582" d=" M 251.60 51.56 C 272.71 41.42 295.71 35.13 318.99 32.96 C 327.98 33.11 336.98 32.88 345.96 33.05 C 349.54 34.24 353.26 33.98 356.96 34.05 C 359.58 34.76 362.25 35.09 364.96 35.10 C 376.86 37.29 388.73 39.78 400.16 43.87 C 420.55 51.61 440.21 61.90 456.87 76.11 C 461.66 79.27 464.82 84.29 469.76 87.27 C 469.85 87.92 470.05 89.21 470.15 89.85 C 470.79 89.95 472.09 90.14 472.73 90.24 C 475.29 94.60 479.66 97.40 482.43 101.59 C 491.95 112.15 498.81 124.71 506.33 136.66 C 515.80 155.24 521.59 175.48 524.99 196.02 C 525.14 197.87 524.86 199.78 525.40 201.60 C 527.00 206.74 525.02 212.25 526.61 217.39 C 528.34 224.29 525.28 231.09 526.09 238.02 C 524.52 251.10 522.42 264.22 519.05 277.02 C 515.06 290.85 509.68 304.26 503.03 317.02 C 502.58 317.94 501.90 318.66 501.00 319.19 C 501.86 316.47 503.11 313.90 504.46 311.40 C 509.61 301.55 513.22 291.01 516.54 280.43 C 516.93 279.02 517.27 277.58 517.27 276.11 C 516.67 274.04 516.06 271.98 515.55 269.90 C 516.42 270.61 517.31 271.30 518.21 271.99 L 519.06 272.04 C 519.05 270.81 519.04 269.58 519.01 268.35 C 519.14 267.86 519.39 266.89 519.52 266.40 C 520.72 263.56 518.93 260.72 518.73 257.87 C 520.46 258.13 519.49 260.97 521.30 261.03 C 520.86 257.97 519.88 255.00 519.76 251.89 C 521.67 251.92 520.29 255.24 522.27 255.00 C 522.20 251.28 520.56 247.77 520.82 244.03 C 522.85 243.61 521.18 247.28 523.17 246.99 C 523.12 245.76 523.05 244.54 522.97 243.32 C 523.08 240.42 523.02 237.52 522.83 234.63 C 522.95 233.91 523.19 232.46 523.31 231.74 C 523.31 231.62 523.31 231.37 523.31 231.25 C 523.19 229.61 523.03 227.98 523.07 226.34 C 524.64 222.89 524.11 218.94 523.84 215.28 C 523.61 214.96 523.16 214.32 522.93 214.00 C 521.52 212.79 522.00 210.94 522.11 209.34 C 523.97 205.73 522.44 201.75 522.04 197.99 C 519.60 178.40 513.96 159.24 505.69 141.32 C 501.74 133.47 496.88 126.13 492.41 118.59 C 485.75 108.44 477.78 99.29 469.72 90.26 C 452.38 73.86 432.52 59.72 410.28 50.75 C 388.99 41.74 366.01 37.08 343.00 35.94 C 336.51 36.11 330.01 36.01 323.52 35.74 C 297.75 36.82 272.57 44.46 249.31 55.32 C 244.91 59.81 239.01 61.97 233.33 64.35 C 185.02 92.99 150.61 143.43 140.58 198.59 C 138.30 207.90 138.33 217.53 137.00 226.97 C 137.17 233.63 136.24 240.45 138.12 246.94 C 139.22 249.84 137.60 252.85 138.20 255.77 C 140.56 263.37 141.19 271.35 142.83 279.12 C 142.96 284.09 144.75 288.70 146.82 293.14 C 155.53 319.46 169.37 344.34 188.57 364.44 C 190.97 368.00 194.27 370.75 197.65 373.33 C 217.96 392.40 242.98 406.07 269.46 414.46 C 279.28 417.02 289.13 419.60 299.25 420.67 C 306.54 421.37 314.16 423.37 321.34 421.11 C 327.88 420.63 334.46 420.87 341.01 421.00 C 341.27 422.69 343.63 422.69 343.84 420.97 C 346.58 419.32 349.64 419.95 352.61 420.37 C 354.39 417.75 357.47 419.39 359.82 420.12 C 359.68 419.60 359.40 418.56 359.26 418.05 C 363.19 417.46 367.23 416.66 371.05 418.26 C 370.35 417.43 369.65 416.60 368.96 415.78 C 371.02 416.29 373.07 416.83 375.17 417.23 C 374.36 416.28 373.52 415.38 372.63 414.53 C 375.93 413.09 379.47 412.29 382.86 413.94 C 386.81 412.53 390.77 411.13 394.79 409.91 C 394.61 409.37 394.24 408.28 394.05 407.74 C 395.87 408.17 398.00 409.50 399.63 407.89 C 399.52 407.37 399.28 406.32 399.16 405.79 C 400.96 406.51 402.86 406.73 404.74 406.13 C 411.20 405.62 416.03 400.54 422.20 398.98 C 420.94 401.27 418.12 401.78 416.01 403.02 C 395.90 413.57 373.91 420.47 351.41 423.46 C 347.66 424.48 343.69 423.66 339.97 424.96 C 329.98 425.14 319.97 424.86 309.98 425.13 C 301.81 423.76 293.58 422.74 285.37 421.66 C 280.42 419.96 275.32 418.72 270.17 417.80 C 257.62 413.09 244.76 408.77 233.20 401.81 C 221.81 395.61 211.19 388.07 201.23 379.76 C 197.93 376.40 194.67 372.98 190.91 370.12 C 188.70 368.60 187.60 366.09 185.77 364.23 C 178.93 357.95 173.70 350.21 168.19 342.80 C 161.14 333.02 155.97 322.12 150.70 311.33 C 148.23 304.99 145.62 298.69 143.91 292.10 C 140.88 288.08 139.86 283.00 139.90 278.04 C 138.65 271.85 137.46 265.64 136.67 259.38 C 136.07 257.92 134.98 256.60 134.96 254.96 C 134.48 252.03 136.92 249.28 135.71 246.38 C 134.82 244.71 133.77 243.02 133.99 241.03 C 134.14 236.09 133.67 231.11 134.22 226.20 C 135.50 222.59 134.79 218.77 135.05 215.04 C 136.25 210.16 136.14 205.11 137.27 200.21 C 140.88 182.08 146.07 164.10 154.67 147.67 C 162.45 131.34 172.50 116.04 184.57 102.59 C 188.14 97.22 193.78 93.76 197.73 88.73 C 201.14 84.75 205.72 82.11 209.29 78.29 C 216.93 72.56 224.45 66.60 232.65 61.67 C 237.24 60.25 241.33 57.69 245.68 55.71 C 248.01 54.75 248.82 51.76 251.60 51.56 Z" />
<path fill="#000000" d=" M 323.52 35.74 C 330.01 36.01 336.51 36.11 343.00 35.94 C 366.01 37.08 388.99 41.74 410.28 50.75 C 432.52 59.72 452.38 73.86 469.72 90.26 C 477.78 99.29 485.75 108.44 492.41 118.59 C 496.88 126.13 501.74 133.47 505.69 141.32 C 513.96 159.24 519.60 178.40 522.04 197.99 C 522.44 201.75 523.97 205.73 522.11 209.34 C 521.17 193.54 517.51 177.91 512.26 163.01 C 510.33 155.45 506.76 148.44 503.72 141.31 C 498.24 133.03 494.00 123.96 487.86 116.13 C 483.21 109.84 478.46 103.60 472.79 98.20 C 468.87 92.80 463.20 89.15 458.73 84.26 C 429.25 58.46 391.20 42.49 352.10 39.78 C 342.15 38.15 332.02 39.41 321.99 38.95 C 306.20 40.05 290.54 43.32 275.62 48.62 C 266.81 51.57 257.70 54.50 250.25 60.24 C 245.65 62.79 241.04 65.38 236.04 67.09 C 184.73 98.44 148.08 153.68 141.65 213.75 C 140.53 218.86 141.50 224.14 140.30 229.24 C 139.76 235.29 139.30 241.66 141.61 247.42 C 142.84 250.44 140.17 253.55 141.38 256.58 C 143.49 262.45 143.88 268.70 145.28 274.74 C 146.21 278.68 145.71 282.88 147.30 286.66 C 151.80 296.20 154.32 306.53 158.99 316.01 C 166.78 331.78 176.42 346.71 188.23 359.77 C 193.08 364.58 197.93 369.40 202.72 374.27 C 222.68 392.28 246.61 405.71 272.25 413.70 C 273.48 413.92 274.73 414.09 275.99 414.23 C 287.61 418.03 299.84 419.59 311.96 420.96 C 315.08 421.10 318.21 420.97 321.34 421.11 C 314.16 423.37 306.54 421.37 299.25 420.67 C 289.13 419.60 279.28 417.02 269.46 414.46 C 242.98 406.07 217.96 392.40 197.65 373.33 C 194.27 370.75 190.97 368.00 188.57 364.44 C 169.37 344.34 155.53 319.46 146.82 293.14 C 144.75 288.70 142.96 284.09 142.83 279.12 C 141.19 271.35 140.56 263.37 138.20 255.77 C 137.60 252.85 139.22 249.84 138.12 246.94 C 136.24 240.45 137.17 233.63 137.00 226.97 C 138.33 217.53 138.30 207.90 140.58 198.59 C 150.61 143.43 185.02 92.99 233.33 64.35 C 239.01 61.97 244.91 59.81 249.31 55.32 C 272.57 44.46 297.75 36.82 323.52 35.74 Z" />
<path fill="#ec7571" d=" M 275.62 48.62 C 290.54 43.32 306.20 40.05 321.99 38.95 C 332.02 39.41 342.15 38.15 352.10 39.78 C 391.20 42.49 429.25 58.46 458.73 84.26 C 463.20 89.15 468.87 92.80 472.79 98.20 C 478.46 103.60 483.21 109.84 487.86 116.13 C 494.00 123.96 498.24 133.03 503.72 141.31 C 506.76 148.44 510.33 155.45 512.26 163.01 C 508.35 159.14 509.10 152.51 504.66 149.07 C 502.11 145.50 500.79 141.25 498.38 137.60 C 494.30 130.17 489.76 123.01 485.07 115.95 C 484.25 114.80 483.22 113.82 482.21 112.85 C 481.94 112.34 481.40 111.32 481.13 110.80 C 480.21 109.83 479.30 108.86 478.39 107.88 C 473.38 101.27 468.06 94.67 461.44 89.56 C 426.81 57.46 379.07 40.29 331.97 42.04 C 325.28 40.90 318.54 41.96 311.87 42.78 C 291.82 45.34 272.25 51.33 254.04 60.05 C 248.29 63.84 242.47 67.57 235.98 69.97 C 223.26 77.43 211.88 87.00 201.10 97.00 C 199.53 96.84 198.83 97.54 199.00 99.10 C 185.65 113.12 174.15 128.94 165.08 146.06 C 153.67 168.08 146.56 192.31 144.06 216.98 C 143.01 227.78 141.77 238.92 144.45 249.58 C 144.73 251.70 143.97 253.79 143.98 255.92 C 146.55 262.82 146.73 270.28 148.59 277.39 C 148.70 282.69 150.01 287.75 152.55 292.42 C 159.82 314.50 170.80 335.43 185.54 353.47 C 188.27 357.35 192.24 360.13 194.98 364.01 C 196.57 366.41 199.02 367.97 201.19 369.80 C 206.32 374.82 211.78 379.63 217.99 383.29 C 218.22 383.48 218.68 383.87 218.91 384.06 C 219.29 385.39 220.46 386.24 221.85 386.25 C 222.13 386.42 222.67 386.78 222.95 386.95 C 223.42 387.29 224.37 387.96 224.84 388.30 C 227.12 390.46 229.87 391.96 232.65 393.38 C 242.62 399.19 253.17 404.04 264.11 407.71 C 265.49 408.21 266.76 408.96 267.96 409.80 C 270.04 412.26 273.57 412.24 275.99 414.23 C 274.73 414.09 273.48 413.92 272.25 413.70 C 246.61 405.71 222.68 392.28 202.72 374.27 C 197.93 369.40 193.08 364.58 188.23 359.77 C 176.42 346.71 166.78 331.78 158.99 316.01 C 154.32 306.53 151.80 296.20 147.30 286.66 C 145.71 282.88 146.21 278.68 145.28 274.74 C 143.88 268.70 143.49 262.45 141.38 256.58 C 140.17 253.55 142.84 250.44 141.61 247.42 C 139.30 241.66 139.76 235.29 140.30 229.24 C 141.50 224.14 140.53 218.86 141.65 213.75 C 148.08 153.68 184.73 98.44 236.04 67.09 C 241.04 65.38 245.65 62.79 250.25 60.24 C 257.70 54.50 266.81 51.57 275.62 48.62 Z" />
<path fill="#000000" d=" M 311.87 42.78 C 318.54 41.96 325.28 40.90 331.97 42.04 C 379.07 40.29 426.81 57.46 461.44 89.56 C 468.06 94.67 473.38 101.27 478.39 107.88 C 472.55 104.14 468.35 98.40 463.28 93.73 C 433.23 65.65 392.87 49.56 352.01 46.94 C 344.93 46.80 337.77 47.64 330.76 46.31 C 306.45 47.77 282.37 53.94 260.31 64.31 C 254.32 68.67 247.65 71.92 240.90 74.89 C 231.09 81.19 221.58 88.09 213.11 96.12 C 208.92 98.88 206.10 103.10 202.26 106.25 C 190.52 119.47 179.27 133.43 171.31 149.33 C 159.90 170.19 152.71 193.29 149.78 216.87 C 148.29 222.92 149.73 229.19 148.29 235.23 C 146.67 242.83 151.13 250.30 149.31 257.89 C 151.14 265.56 152.06 273.42 153.84 281.11 C 153.88 287.77 157.48 293.49 159.29 299.72 C 167.46 323.81 180.93 346.10 198.60 364.41 C 201.69 368.64 205.86 371.81 209.74 375.25 C 212.26 378.19 216.07 379.83 217.99 383.29 C 211.78 379.63 206.32 374.82 201.19 369.80 C 199.02 367.97 196.57 366.41 194.98 364.01 C 192.24 360.13 188.27 357.35 185.54 353.47 C 170.80 335.43 159.82 314.50 152.55 292.42 C 150.01 287.75 148.70 282.69 148.59 277.39 C 146.73 270.28 146.55 262.82 143.98 255.92 C 143.97 253.79 144.73 251.70 144.45 249.58 C 141.77 238.92 143.01 227.78 144.06 216.98 C 146.56 192.31 153.67 168.08 165.08 146.06 C 174.15 128.94 185.65 113.12 199.00 99.10 C 200.21 98.91 200.91 98.21 201.10 97.00 C 211.88 87.00 223.26 77.43 235.98 69.97 C 242.47 67.57 248.29 63.84 254.04 60.05 C 272.25 51.33 291.82 45.34 311.87 42.78 Z" />
<path fill="#d24643" d=" M 260.31 64.31 C 282.37 53.94 306.45 47.77 330.76 46.31 C 337.77 47.64 344.93 46.80 352.01 46.94 C 392.87 49.56 433.23 65.65 463.28 93.73 C 468.35 98.40 472.55 104.14 478.39 107.88 C 479.30 108.86 480.21 109.83 481.13 110.80 C 481.20 111.23 481.34 112.09 481.41 112.52 L 482.21 112.85 C 483.22 113.82 484.25 114.80 485.07 115.95 C 489.76 123.01 494.30 130.17 498.38 137.60 C 500.79 141.25 502.11 145.50 504.66 149.07 C 505.64 151.73 506.40 154.47 507.05 157.23 C 505.80 155.30 504.71 153.28 503.90 151.13 C 501.81 145.58 498.06 140.90 495.26 135.72 C 491.04 127.91 485.71 120.76 480.10 113.91 C 476.76 110.26 474.18 105.88 470.09 102.97 C 465.23 96.79 458.75 92.25 452.81 87.20 C 424.11 64.95 388.55 51.37 352.24 49.70 C 344.24 48.23 336.06 49.37 327.98 48.95 C 304.94 50.58 282.29 56.68 261.30 66.27 C 257.73 67.89 254.87 70.66 251.37 72.40 C 248.03 74.12 244.35 75.13 241.18 77.18 C 229.67 84.74 218.30 92.76 208.76 102.76 C 184.54 125.90 167.20 155.86 158.00 187.99 C 154.20 201.70 151.96 215.81 150.94 229.98 C 151.30 236.73 150.32 243.57 151.70 250.24 C 152.27 253.44 151.80 256.70 152.10 259.92 C 154.12 269.38 155.97 278.90 157.54 288.45 C 158.29 291.75 160.25 294.60 161.15 297.86 C 168.83 322.24 182.68 344.36 199.73 363.28 C 204.74 367.95 209.06 373.44 214.95 377.09 C 216.76 379.30 219.12 380.93 221.43 382.59 C 229.91 389.00 238.91 394.73 248.32 399.71 C 257.10 403.89 266.14 407.49 275.19 411.03 C 272.76 410.74 270.33 410.41 267.96 409.80 C 266.76 408.96 265.49 408.21 264.11 407.71 C 253.17 404.04 242.62 399.19 232.65 393.38 C 229.87 391.96 227.12 390.46 224.84 388.30 C 224.37 387.96 223.42 387.29 222.95 386.95 C 222.67 386.78 222.13 386.42 221.85 386.25 C 221.94 384.59 220.43 383.58 218.91 384.06 C 218.68 383.87 218.22 383.48 217.99 383.29 C 216.07 379.83 212.26 378.19 209.74 375.25 C 205.86 371.81 201.69 368.64 198.60 364.41 C 180.93 346.10 167.46 323.81 159.29 299.72 C 157.48 293.49 153.88 287.77 153.84 281.11 C 152.06 273.42 151.14 265.56 149.31 257.89 C 151.13 250.30 146.67 242.83 148.29 235.23 C 149.73 229.19 148.29 222.92 149.78 216.87 C 152.71 193.29 159.90 170.19 171.31 149.33 C 179.27 133.43 190.52 119.47 202.26 106.25 C 206.10 103.10 208.92 98.88 213.11 96.12 C 221.58 88.09 231.09 81.19 240.90 74.89 C 247.65 71.92 254.32 68.67 260.31 64.31 Z" />
<path fill="#000000" d=" M 261.30 66.27 C 282.29 56.68 304.94 50.58 327.98 48.95 C 336.06 49.37 344.24 48.23 352.24 49.70 C 388.55 51.37 424.11 64.95 452.81 87.20 C 458.75 92.25 465.23 96.79 470.09 102.97 C 465.53 101.13 461.56 98.16 457.40 95.59 C 447.08 88.67 435.81 83.34 424.31 78.69 C 419.65 76.91 414.87 75.18 409.83 75.10 C 405.09 73.69 400.56 71.70 395.89 70.10 C 378.39 65.05 360.25 61.64 342.00 62.03 C 317.31 61.13 292.83 67.51 270.32 77.34 C 264.32 80.24 259.10 84.60 252.73 86.79 C 240.92 93.51 230.37 102.22 220.27 111.24 C 217.35 114.99 213.23 117.58 210.55 121.54 C 184.19 150.64 167.39 188.50 164.70 227.76 C 163.54 234.73 163.96 241.87 164.20 248.90 C 165.54 254.20 164.34 259.77 166.00 265.00 C 167.15 269.13 167.36 273.45 168.47 277.59 C 169.92 282.59 169.92 287.98 172.27 292.71 C 175.87 302.92 179.72 313.09 184.85 322.64 C 184.57 323.84 184.04 325.10 184.66 326.30 C 186.10 330.31 187.92 334.19 190.18 337.82 C 192.89 342.22 194.75 347.08 197.52 351.46 C 200.94 356.94 204.85 362.10 208.69 367.30 C 210.94 370.46 214.24 373.07 214.95 377.09 C 209.06 373.44 204.74 367.95 199.73 363.28 C 182.68 344.36 168.83 322.24 161.15 297.86 C 160.25 294.60 158.29 291.75 157.54 288.45 C 155.97 278.90 154.12 269.38 152.10 259.92 C 151.80 256.70 152.27 253.44 151.70 250.24 C 150.32 243.57 151.30 236.73 150.94 229.98 C 151.96 215.81 154.20 201.70 158.00 187.99 C 167.20 155.86 184.54 125.90 208.76 102.76 C 218.30 92.76 229.67 84.74 241.18 77.18 C 244.35 75.13 248.03 74.12 251.37 72.40 C 254.87 70.66 257.73 67.89 261.30 66.27 Z" />
<path fill="#bf2621" d=" M 270.32 77.34 C 292.83 67.51 317.31 61.13 342.00 62.03 C 360.25 61.64 378.39 65.05 395.89 70.10 C 400.56 71.70 405.09 73.69 409.83 75.10 C 419.79 79.86 429.85 84.64 438.83 91.15 C 444.07 94.46 448.62 98.71 453.56 102.44 C 458.13 105.86 461.32 110.70 465.71 114.32 C 470.22 118.16 473.71 122.97 477.57 127.44 C 491.53 145.75 502.67 166.49 508.07 188.98 C 510.74 198.80 512.03 208.92 513.27 218.98 C 512.88 227.33 512.89 235.69 513.01 244.04 C 510.84 267.30 505.43 290.62 494.30 311.32 C 488.41 324.06 480.21 335.56 471.44 346.46 C 468.32 350.62 464.33 353.99 460.74 357.73 C 439.82 379.85 412.71 395.86 383.58 404.53 C 372.27 407.59 360.67 409.59 349.04 410.95 C 340.01 410.86 331.00 411.48 321.98 411.10 C 287.57 408.81 254.07 395.45 227.37 373.65 C 223.06 369.60 218.09 366.28 214.43 361.57 C 209.40 357.57 205.75 352.25 201.48 347.50 C 194.98 339.90 190.03 331.16 184.85 322.64 C 179.72 313.09 175.87 302.92 172.27 292.71 C 169.92 287.98 169.92 282.59 168.47 277.59 C 167.36 273.45 167.15 269.13 166.00 265.00 C 164.34 259.77 165.54 254.20 164.20 248.90 C 163.96 241.87 163.54 234.73 164.70 227.76 C 167.39 188.50 184.19 150.64 210.55 121.54 C 213.23 117.58 217.35 114.99 220.27 111.24 C 230.37 102.22 240.92 93.51 252.73 86.79 C 259.10 84.60 264.32 80.24 270.32 77.34 Z" />
<path fill="#020000" d=" M 326.39 64.38 C 332.85 63.37 339.47 64.28 346.00 63.93 C 351.09 63.47 355.91 65.64 361.02 64.96 C 370.50 66.59 380.23 67.43 389.38 70.66 C 403.31 74.13 416.29 80.44 428.98 87.01 C 440.44 94.26 451.93 101.87 461.16 111.89 C 471.79 121.78 480.58 133.55 487.93 146.05 C 491.76 153.57 496.52 160.65 499.23 168.71 C 504.50 183.60 509.22 198.98 510.25 214.79 C 511.77 220.06 510.76 225.60 511.04 231.00 C 510.79 237.35 511.75 243.82 510.17 250.05 C 506.98 281.00 495.68 311.11 477.22 336.21 C 473.68 341.26 469.59 345.93 465.76 350.77 C 460.42 355.76 455.70 361.43 450.00 366.01 C 438.67 375.74 426.23 384.33 412.68 390.68 C 392.14 401.60 368.99 406.94 346.01 409.08 C 337.66 408.98 329.32 409.09 320.98 409.01 C 304.84 406.52 288.21 404.54 273.17 397.82 C 267.88 396.61 263.55 393.10 258.38 391.60 C 256.09 390.70 254.27 388.93 252.02 387.96 C 246.25 385.36 241.33 381.32 236.01 377.98 C 231.55 374.46 226.60 371.49 222.77 367.23 C 218.13 363.59 213.60 359.65 210.13 354.85 C 201.49 345.58 194.04 335.15 188.11 323.95 C 185.31 317.51 181.32 311.64 179.05 304.97 C 176.94 300.25 176.18 294.99 173.49 290.53 C 171.77 286.35 172.12 281.66 170.58 277.41 C 168.90 272.24 169.55 266.62 167.31 261.64 C 166.43 257.12 167.64 252.39 166.02 247.96 C 166.08 241.96 165.27 235.81 166.91 229.96 C 166.65 222.13 168.15 214.43 169.71 206.78 C 176.05 174.03 192.03 143.20 215.11 119.15 C 218.08 114.45 223.21 111.92 226.71 107.72 C 233.24 102.17 240.05 96.92 247.18 92.16 C 253.30 88.07 260.74 86.21 266.38 81.38 C 285.24 72.54 305.63 66.51 326.39 64.38 Z" />
<path fill="#050000" d=" M 409.83 75.10 C 414.87 75.18 419.65 76.91 424.31 78.69 C 435.81 83.34 447.08 88.67 457.40 95.59 C 461.56 98.16 465.53 101.13 470.09 102.97 C 474.18 105.88 476.76 110.26 480.10 113.91 C 485.71 120.76 491.04 127.91 495.26 135.72 C 498.06 140.90 501.81 145.58 503.90 151.13 C 504.71 153.28 505.80 155.30 507.05 157.23 C 512.40 170.27 516.16 183.94 518.29 197.87 C 519.20 203.45 519.24 209.14 520.30 214.70 C 519.42 222.86 520.83 231.14 519.34 239.24 C 517.41 259.43 513.16 279.55 505.27 298.29 C 496.87 319.02 484.49 338.00 469.79 354.79 C 463.78 360.44 458.38 366.76 452.03 372.04 C 425.41 394.83 392.55 410.44 357.88 415.85 C 353.26 416.62 348.64 417.39 343.99 417.91 C 340.24 418.34 336.33 417.36 332.71 418.74 C 327.14 419.37 321.53 419.01 315.99 418.29 C 302.14 417.78 288.45 415.01 275.19 411.03 C 266.14 407.49 257.10 403.89 248.32 399.71 C 238.91 394.73 229.91 389.00 221.43 382.59 C 219.12 380.93 216.76 379.30 214.95 377.09 C 214.24 373.07 210.94 370.46 208.69 367.30 C 204.85 362.10 200.94 356.94 197.52 351.46 C 194.75 347.08 192.89 342.22 190.18 337.82 C 187.92 334.19 186.10 330.31 184.66 326.30 C 184.04 325.10 184.57 323.84 184.85 322.64 C 190.03 331.16 194.98 339.90 201.48 347.50 C 205.75 352.25 209.40 357.57 214.43 361.57 C 218.09 366.28 223.06 369.60 227.37 373.65 C 254.07 395.45 287.57 408.81 321.98 411.10 C 331.00 411.48 340.01 410.86 349.04 410.95 C 360.67 409.59 372.27 407.59 383.58 404.53 C 412.71 395.86 439.82 379.85 460.74 357.73 C 464.33 353.99 468.32 350.62 471.44 346.46 C 480.21 335.56 488.41 324.06 494.30 311.32 C 505.43 290.62 510.84 267.30 513.01 244.04 C 512.89 235.69 512.88 227.33 513.27 218.98 C 512.03 208.92 510.74 198.80 508.07 188.98 C 502.67 166.49 491.53 145.75 477.57 127.44 C 473.71 122.97 470.22 118.16 465.71 114.32 C 461.32 110.70 458.13 105.86 453.56 102.44 C 448.62 98.71 444.07 94.46 438.83 91.15 C 429.85 84.64 419.79 79.86 409.83 75.10 Z" />
<path fill="#6f0400" d=" M 294.88 95.92 C 314.77 88.88 335.86 84.87 356.97 85.99 C 361.91 87.50 367.14 86.20 372.10 87.70 C 391.53 90.18 410.35 96.87 427.23 106.74 C 427.46 107.08 427.92 107.77 428.15 108.11 C 420.97 105.53 414.56 101.15 407.28 98.76 C 397.61 94.45 387.20 92.28 376.88 90.15 C 372.65 88.96 368.19 89.39 363.95 88.25 C 354.00 87.97 344.04 88.31 334.09 88.33 C 328.19 89.62 322.08 89.72 316.24 91.35 C 309.24 93.26 301.97 94.31 295.31 97.29 C 290.44 99.43 285.19 100.79 280.73 103.78 C 275.42 107.35 269.16 109.19 263.95 112.92 C 261.64 114.41 259.54 116.30 256.90 117.18 C 258.14 114.67 260.87 113.59 263.02 112.02 C 267.88 108.61 273.53 106.60 278.66 103.66 C 283.62 100.22 289.28 98.04 294.88 95.92 Z" />
<path fill="#ffeae2" d=" M 199.00 99.10 C 198.83 97.54 199.53 96.84 201.10 97.00 C 200.91 98.21 200.21 98.91 199.00 99.10 Z" />
<path fill="#020000" d=" M 481.13 110.80 C 481.40 111.32 481.94 112.34 482.21 112.85 L 481.41 112.52 C 481.34 112.09 481.20 111.23 481.13 110.80 Z" />
<path fill="#620400" d=" M 442.85 117.75 C 445.38 117.98 447.00 120.19 448.18 122.22 C 445.66 121.94 444.02 119.78 442.85 117.75 Z" />
<path fill="#620400" d=" M 448.83 122.76 C 451.77 123.23 453.59 125.96 455.18 128.24 C 452.25 127.71 450.40 125.04 448.83 122.76 Z" />
<path fill="#c6ac2c" d=" M 292.37 139.37 C 307.17 132.46 323.64 129.04 339.96 130.05 C 342.28 130.58 344.60 131.20 347.01 131.00 C 382.68 134.63 414.87 160.27 427.13 193.84 C 428.74 198.94 430.72 203.96 431.73 209.22 C 431.97 211.78 432.41 214.32 433.22 216.77 C 432.92 224.79 432.75 232.83 432.98 240.86 L 432.16 240.93 C 431.85 236.21 433.67 230.91 431.06 226.64 C 430.89 223.13 431.02 219.56 429.92 216.17 C 429.50 208.18 427.65 200.11 424.20 192.87 C 423.43 190.43 422.63 187.98 421.40 185.73 C 417.01 176.57 410.92 168.37 404.29 160.71 C 392.46 149.66 378.31 140.73 362.60 136.43 C 354.92 134.31 347.00 132.46 338.98 133.04 C 335.94 133.23 333.00 132.31 330.00 132.04 C 315.59 133.66 300.79 136.50 288.30 144.27 C 277.93 148.79 269.02 156.12 261.24 164.24 C 248.47 178.08 239.82 195.54 235.86 213.90 C 234.33 223.54 232.96 233.41 234.76 243.12 C 236.56 262.26 244.30 280.70 256.31 295.68 C 262.09 301.58 267.61 307.88 274.60 312.41 C 279.53 316.10 285.19 318.58 290.64 321.36 C 294.61 323.36 299.02 324.17 303.21 325.58 C 310.03 327.66 317.12 329.73 324.34 328.81 C 324.75 328.90 325.59 329.09 326.00 329.18 C 327.75 330.55 330.00 330.40 332.01 329.74 C 332.41 329.75 333.22 329.76 333.62 329.77 C 337.70 330.48 341.87 330.43 345.99 330.10 C 345.40 332.08 341.83 330.26 340.06 330.93 C 335.75 332.64 331.10 331.64 326.64 332.43 C 323.39 332.09 320.18 331.50 316.94 331.15 C 301.29 328.91 286.08 323.03 273.27 313.73 C 268.46 309.91 263.53 306.18 259.23 301.77 C 254.66 295.98 249.41 290.64 245.94 284.05 C 241.37 277.34 238.99 269.53 235.79 262.15 C 235.29 255.48 232.30 249.09 232.61 242.43 C 231.58 239.38 232.03 236.14 231.99 233.00 C 232.11 228.59 231.48 224.09 232.71 219.79 C 235.36 199.55 244.44 180.25 258.22 165.22 C 265.89 157.48 273.63 149.48 283.36 144.36 C 286.84 143.65 289.49 141.24 292.37 139.37 Z" />
<path fill="#020200" d=" M 288.30 144.27 C 300.79 136.50 315.59 133.66 330.00 132.04 C 333.00 132.31 335.94 133.23 338.98 133.04 C 347.00 132.46 354.92 134.31 362.60 136.43 C 378.31 140.73 392.46 149.66 404.29 160.71 C 410.92 168.37 417.01 176.57 421.40 185.73 C 420.69 185.55 419.26 185.19 418.55 185.01 C 420.00 187.91 422.13 190.38 424.20 192.87 C 427.65 200.11 429.50 208.18 429.92 216.17 C 426.34 203.69 420.79 191.56 412.11 181.80 C 411.75 181.54 411.03 181.01 410.67 180.74 C 411.26 182.27 412.02 183.73 413.03 185.03 C 423.76 198.74 429.68 215.97 430.72 233.27 C 430.41 258.89 418.11 283.30 400.35 301.35 C 384.76 315.38 365.41 326.26 344.26 328.35 C 326.19 329.01 307.72 324.44 292.60 314.40 C 289.66 312.53 287.17 309.89 283.80 308.76 C 286.80 312.63 291.27 315.04 295.30 317.71 C 304.15 323.29 314.29 326.25 324.34 328.81 C 317.12 329.73 310.03 327.66 303.21 325.58 C 299.02 324.17 294.61 323.36 290.64 321.36 C 285.19 318.58 279.53 316.10 274.60 312.41 C 267.61 307.88 262.09 301.58 256.31 295.68 C 244.30 280.70 236.56 262.26 234.76 243.12 C 232.96 233.41 234.33 223.54 235.86 213.90 C 239.82 195.54 248.47 178.08 261.24 164.24 C 269.02 156.12 277.93 148.79 288.30 144.27 Z" />
<path fill="#620400" d=" M 461.76 134.83 C 464.02 136.42 466.73 138.23 467.23 141.17 C 464.95 139.59 462.30 137.74 461.76 134.83 Z" />
<path fill="#c6ac2c" d=" M 306.77 156.96 C 316.36 152.86 326.48 149.55 336.97 149.04 C 339.85 148.87 342.84 148.42 345.63 149.35 C 349.71 151.01 354.21 149.41 358.37 150.77 C 369.84 152.84 381.03 156.84 390.80 163.26 C 394.09 165.89 398.33 167.44 400.78 171.02 C 392.81 165.42 384.83 159.50 375.51 156.31 C 368.93 154.12 362.24 151.94 355.30 151.41 C 348.96 149.98 342.40 150.87 335.96 150.66 C 329.53 151.75 323.01 152.59 316.79 154.65 C 303.21 159.48 290.27 166.67 279.99 176.89 C 281.36 172.96 285.50 171.03 288.40 168.35 C 293.81 163.46 300.59 160.67 306.77 156.96 Z" />
<path fill="#ffbbb4" d=" M 504.66 149.07 C 509.10 152.51 508.35 159.14 512.26 163.01 C 517.51 177.91 521.17 193.54 522.11 209.34 C 522.00 210.94 521.52 212.79 522.93 214.00 C 523.05 218.11 522.93 222.23 523.07 226.34 C 523.03 227.98 523.19 229.61 523.31 231.25 L 523.31 231.74 C 523.19 232.46 522.95 233.91 522.83 234.63 C 521.61 237.39 521.46 240.63 522.97 243.32 C 523.05 244.54 523.12 245.76 523.17 246.99 C 521.18 247.28 522.85 243.61 520.82 244.03 C 520.56 247.77 522.20 251.28 522.27 255.00 C 520.29 255.24 521.67 251.92 519.76 251.89 C 519.88 255.00 520.86 257.97 521.30 261.03 C 519.49 260.97 520.46 258.13 518.73 257.87 C 518.93 260.72 520.72 263.56 519.52 266.40 C 518.83 264.03 517.62 261.66 518.08 259.13 C 519.39 252.14 520.27 245.08 520.96 238.02 C 520.62 230.25 521.65 222.38 520.30 214.70 C 519.24 209.14 519.20 203.45 518.29 197.87 C 516.16 183.94 512.40 170.27 507.05 157.23 C 506.40 154.47 505.64 151.73 504.66 149.07 Z" />
<path fill="#543f00" d=" M 383.79 156.81 C 386.29 156.92 389.08 157.76 390.22 160.21 C 387.95 159.44 385.29 158.83 383.79 156.81 Z" />
<path fill="#ffffff" d=" M 316.96 161.87 C 320.99 160.92 325.01 162.37 329.07 162.05 C 340.85 163.18 352.43 167.77 361.25 175.74 C 364.37 179.24 368.06 182.22 370.96 185.91 C 373.45 189.87 376.03 193.79 377.83 198.12 C 378.62 201.15 380.02 204.00 380.71 207.06 C 380.99 209.08 381.37 211.09 381.87 213.07 C 381.75 217.93 381.59 222.78 381.58 227.64 C 380.80 230.04 380.29 232.50 379.76 234.96 C 373.49 257.60 353.84 275.89 330.74 280.35 C 325.69 279.96 320.72 281.31 315.67 281.20 C 314.38 281.12 313.09 281.04 311.80 280.97 C 310.50 280.57 309.19 280.20 307.88 279.86 C 287.85 275.43 271.41 259.24 265.09 239.95 C 264.19 233.96 262.25 228.10 262.23 222.00 C 262.79 206.54 268.91 190.99 280.39 180.40 C 284.87 175.72 289.73 170.98 296.08 169.09 C 302.00 164.52 309.68 162.86 316.96 161.87 Z" />
<path fill="#620400" d=" M 481.77 161.79 C 485.05 163.54 485.06 167.92 487.56 170.45 C 494.99 184.91 499.82 200.70 502.30 216.78 C 503.35 220.81 502.63 225.05 503.92 229.04 C 504.10 236.34 504.06 243.66 503.91 250.95 C 503.12 253.90 502.93 256.91 502.90 259.95 C 501.14 269.23 499.97 278.72 496.61 287.61 C 493.44 297.85 489.48 307.89 484.23 317.25 C 483.87 317.50 483.14 317.98 482.78 318.22 C 484.52 312.80 488.01 308.14 489.75 302.71 C 495.68 288.86 499.72 274.21 501.30 259.22 C 502.50 255.24 501.77 251.10 502.09 247.05 C 503.04 243.25 503.58 239.24 502.59 235.39 C 501.20 230.89 502.81 226.10 501.43 221.60 C 499.57 204.88 494.48 188.64 487.69 173.31 C 485.71 169.48 482.86 166.03 481.77 161.79 Z" />
<path fill="#030300" d=" M 321.50 164.52 C 327.40 165.10 333.44 165.07 339.15 166.86 C 341.81 167.99 344.63 168.66 347.32 169.68 C 356.31 173.67 364.23 180.22 369.48 188.56 C 369.69 189.14 370.09 190.29 370.29 190.86 C 364.12 185.69 357.50 180.97 349.89 178.12 C 338.09 174.20 324.95 173.59 313.25 178.22 C 306.51 181.39 299.50 184.45 294.30 189.95 C 292.89 191.99 290.79 193.35 289.11 195.14 C 280.91 205.49 276.45 218.59 276.20 231.73 C 277.65 238.67 278.01 246.07 281.60 252.35 C 283.73 256.44 285.65 260.71 288.73 264.19 C 291.58 267.41 294.85 270.21 298.06 273.05 C 294.95 272.78 292.62 270.45 289.97 269.06 C 279.51 262.74 272.30 252.05 268.34 240.67 C 266.81 233.49 264.15 226.14 265.51 218.75 C 266.71 204.97 272.26 191.07 282.63 181.63 C 286.26 177.76 290.33 173.94 295.54 172.40 C 297.19 171.95 298.20 170.46 299.65 169.66 C 306.56 166.68 313.93 164.60 321.50 164.52 Z" />
<path fill="#6e0400" d=" M 208.65 170.68 C 209.17 169.45 209.92 168.34 211.21 167.85 C 207.18 177.25 201.89 186.19 199.16 196.14 C 194.60 208.27 192.76 221.18 191.20 233.96 C 191.53 243.60 191.17 253.25 191.40 262.89 C 192.36 268.81 193.44 274.71 194.54 280.61 C 197.76 297.58 205.00 313.49 213.64 328.35 C 215.01 331.02 217.28 333.20 218.16 336.12 C 216.28 335.30 215.13 333.56 214.11 331.87 C 207.16 320.55 200.91 308.66 196.93 295.94 C 193.35 287.46 192.73 278.14 190.59 269.25 C 189.26 264.87 190.57 260.21 189.19 255.83 C 188.60 250.25 189.09 244.59 188.94 238.97 C 189.50 235.66 190.33 232.38 190.05 228.98 C 192.19 214.92 195.08 200.82 200.77 187.72 C 202.83 181.78 206.00 176.35 208.65 170.68 Z" />
<path fill="#605400" d=" M 402.78 172.70 C 403.43 172.91 404.71 173.33 405.35 173.54 C 405.58 174.08 406.05 175.17 406.28 175.72 C 406.82 175.95 407.91 176.42 408.45 176.65 C 408.67 177.29 409.09 178.58 409.31 179.22 C 406.55 177.74 404.27 175.45 402.78 172.70 Z" />
<path fill="#69c92f" d=" M 313.25 178.22 C 324.95 173.59 338.09 174.20 349.89 178.12 C 357.50 180.97 364.12 185.69 370.29 190.86 C 372.77 192.69 374.16 196.14 373.90 199.20 C 372.89 198.25 371.87 197.32 370.88 196.36 C 370.15 194.81 369.62 193.05 368.20 191.98 C 362.55 186.90 356.11 182.60 348.86 180.19 C 343.43 177.84 337.41 178.49 331.75 177.25 C 330.54 176.97 329.34 176.91 328.13 177.08 C 321.23 178.16 314.10 179.20 308.12 183.09 C 302.10 185.58 296.98 189.77 292.45 194.39 C 288.12 200.02 283.68 205.87 281.83 212.86 C 276.16 228.37 278.73 246.40 288.04 259.97 C 290.49 262.89 292.38 266.48 295.81 268.40 C 297.43 269.83 299.21 271.05 301.08 272.14 C 302.17 272.98 303.24 273.87 304.32 274.75 C 302.06 275.43 299.80 274.45 298.06 273.05 C 294.85 270.21 291.58 267.41 288.73 264.19 C 285.65 260.71 283.73 256.44 281.60 252.35 C 278.01 246.07 277.65 238.67 276.20 231.73 C 276.45 218.59 280.91 205.49 289.11 195.14 C 290.79 193.35 292.89 191.99 294.30 189.95 C 299.50 184.45 306.51 181.39 313.25 178.22 Z" />
<path fill="#533e00" d=" M 268.57 188.57 C 271.73 184.42 274.58 179.55 279.21 176.93 C 279.50 178.68 277.75 179.65 276.79 180.80 C 264.99 194.09 257.00 210.80 254.45 228.42 C 253.72 231.38 254.46 234.50 253.47 237.43 C 251.92 242.62 254.23 247.74 254.18 252.95 C 254.94 258.23 256.54 263.34 257.47 268.59 C 261.51 278.34 265.79 288.38 272.81 296.39 C 272.91 296.83 273.09 297.71 273.19 298.16 C 270.00 296.63 268.69 293.04 266.52 290.47 C 264.40 288.03 263.84 284.71 261.67 282.32 C 260.61 281.33 261.40 279.29 259.90 278.68 C 259.93 279.60 259.99 281.44 260.02 282.37 C 253.69 272.85 252.79 261.03 250.98 250.02 C 251.26 243.32 250.24 236.51 251.82 229.92 C 254.01 215.07 259.66 200.69 268.57 188.57 Z" />
<path fill="#040400" d=" M 308.12 183.09 C 314.10 179.20 321.23 178.16 328.13 177.08 C 329.34 176.91 330.54 176.97 331.75 177.25 C 337.41 178.49 343.43 177.84 348.86 180.19 C 356.11 182.60 362.55 186.90 368.20 191.98 C 363.84 190.55 360.30 187.40 355.90 186.06 C 351.40 184.07 346.42 184.20 341.69 183.23 C 335.24 181.63 328.81 184.11 322.61 185.65 C 314.90 188.57 307.18 192.35 301.73 198.72 C 290.91 208.35 285.52 222.85 284.77 237.07 C 285.04 240.57 286.19 243.93 286.61 247.41 C 287.56 255.16 291.87 261.87 295.81 268.40 C 292.38 266.48 290.49 262.89 288.04 259.97 C 278.73 246.40 276.16 228.37 281.83 212.86 C 283.68 205.87 288.12 200.02 292.45 194.39 C 296.98 189.77 302.10 185.58 308.12 183.09 Z" />
<path fill="#685a00" d=" M 410.67 180.74 C 411.03 181.01 411.75 181.54 412.11 181.80 C 420.79 191.56 426.34 203.69 429.92 216.17 C 431.02 219.56 430.89 223.13 431.06 226.64 C 430.90 228.84 430.75 231.05 430.72 233.27 C 429.68 215.97 423.76 198.74 413.03 185.03 C 412.02 183.73 411.26 182.27 410.67 180.74 Z" />
<path fill="#40a400" d=" M 322.61 185.65 C 328.81 184.11 335.24 181.63 341.69 183.23 C 346.42 184.20 351.40 184.07 355.90 186.06 C 360.30 187.40 363.84 190.55 368.20 191.98 C 369.62 193.05 370.15 194.81 370.88 196.36 C 358.47 187.44 342.40 182.30 327.23 186.11 C 320.41 187.35 314.59 191.29 308.65 194.59 C 304.61 197.50 301.33 201.34 297.85 204.86 C 290.37 215.59 285.22 228.91 287.33 242.15 C 288.60 253.32 294.33 263.38 301.08 272.14 C 299.21 271.05 297.43 269.83 295.81 268.40 C 291.87 261.87 287.56 255.16 286.61 247.41 C 286.19 243.93 285.04 240.57 284.77 237.07 C 285.52 222.85 290.91 208.35 301.73 198.72 C 307.18 192.35 314.90 188.57 322.61 185.65 Z" />
<path fill="#060e00" d=" M 327.23 186.11 C 342.40 182.30 358.47 187.44 370.88 196.36 C 371.87 197.32 372.89 198.25 373.90 199.20 C 375.29 200.45 375.88 202.29 375.97 204.12 C 367.42 195.22 355.60 188.81 343.06 188.75 C 334.26 187.90 325.27 190.28 317.71 194.78 C 314.52 196.51 310.73 197.76 308.96 201.22 C 318.16 195.08 328.77 190.35 339.98 190.04 C 352.50 190.87 366.01 194.64 374.06 204.92 C 368.36 203.29 362.90 200.63 356.93 200.09 C 354.42 199.81 352.27 201.41 349.90 201.89 C 344.35 203.00 338.55 203.13 333.27 205.32 C 327.80 207.85 322.20 210.55 318.23 215.24 C 310.13 222.59 306.17 233.45 305.37 244.17 C 305.38 247.03 304.33 249.64 303.14 252.18 C 303.28 261.22 307.93 269.21 312.26 276.85 C 309.49 277.01 306.64 276.26 304.32 274.75 C 303.24 273.87 302.17 272.98 301.08 272.14 C 294.33 263.38 288.60 253.32 287.33 242.15 C 285.22 228.91 290.37 215.59 297.85 204.86 C 301.33 201.34 304.61 197.50 308.65 194.59 C 314.59 191.29 320.41 187.35 327.23 186.11 Z" />
<path fill="#3c2d00" d=" M 418.55 185.01 C 419.26 185.19 420.69 185.55 421.40 185.73 C 422.63 187.98 423.43 190.43 424.20 192.87 C 422.13 190.38 420.00 187.91 418.55 185.01 Z" />
<path fill="#080e00" d=" M 370.96 185.91 C 376.95 187.39 382.07 191.38 386.90 195.09 C 389.99 198.39 393.70 201.25 396.25 204.99 L 396.01 205.79 C 394.16 206.07 393.24 203.45 391.76 202.54 C 390.87 202.92 390.01 203.35 389.15 203.78 C 387.85 202.85 386.63 201.79 385.38 200.80 C 385.54 201.43 385.85 202.71 386.01 203.35 C 382.82 202.52 380.58 199.80 377.83 198.12 C 376.03 193.79 373.45 189.87 370.96 185.91 Z" />
<path fill="#399300" d=" M 317.71 194.78 C 325.27 190.28 334.26 187.90 343.06 188.75 C 355.60 188.81 367.42 195.22 375.97 204.12 C 376.83 204.94 377.20 205.96 377.09 207.19 C 376.08 206.42 375.08 205.66 374.06 204.92 C 366.01 194.64 352.50 190.87 339.98 190.04 C 328.77 190.35 318.16 195.08 308.96 201.22 C 310.73 197.76 314.52 196.51 317.71 194.78 Z" />
<path fill="#000100" d=" M 349.90 201.89 C 352.27 201.41 354.42 199.81 356.93 200.09 C 362.90 200.63 368.36 203.29 374.06 204.92 C 375.08 205.66 376.08 206.42 377.09 207.19 C 377.21 208.56 377.41 209.93 377.71 211.28 C 378.09 216.77 378.22 222.31 377.80 227.80 C 376.16 235.49 373.40 242.95 369.62 249.85 C 364.20 259.43 355.47 266.91 345.68 271.81 C 339.39 274.28 333.16 277.44 326.25 277.52 C 321.64 279.02 316.79 278.23 312.26 276.85 C 307.93 269.21 303.28 261.22 303.14 252.18 C 304.33 249.64 305.38 247.03 305.37 244.17 C 306.17 233.45 310.13 222.59 318.23 215.24 C 322.20 210.55 327.80 207.85 333.27 205.32 C 338.55 203.13 344.35 203.00 349.90 201.89 Z" />
<path fill="#112100" d=" M 390.90 204.81 C 393.39 204.98 394.81 207.68 396.80 209.00 C 396.86 208.49 396.97 207.48 397.03 206.97 L 397.82 207.02 C 403.33 214.75 407.40 223.67 408.95 233.08 C 411.73 246.32 409.12 260.25 403.32 272.33 C 396.85 284.28 386.81 294.46 374.69 300.67 C 357.34 309.07 335.85 309.63 318.75 300.34 C 317.42 298.93 314.45 298.85 314.00 296.99 C 314.48 296.94 315.45 296.84 315.93 296.78 C 315.08 295.62 314.05 294.53 313.68 293.10 C 314.69 293.37 315.71 293.66 316.72 293.95 C 316.53 293.38 316.15 292.24 315.96 291.67 C 319.48 292.57 322.39 294.87 325.74 296.20 C 345.70 304.83 370.35 300.10 385.91 284.91 C 395.54 275.78 401.56 263.17 403.09 250.03 C 403.06 243.47 403.71 236.74 401.63 230.40 C 400.40 224.32 397.51 218.80 394.30 213.56 C 394.17 213.13 393.92 212.27 393.80 211.84 C 394.93 212.40 396.01 213.07 397.09 213.74 C 395.77 210.25 392.51 208.07 390.90 204.81 Z" />
<path fill="#359400" d=" M 301.34 208.35 C 301.78 208.00 302.66 207.30 303.11 206.95 C 302.39 209.11 300.90 210.85 299.71 212.74 C 296.13 218.91 293.19 225.76 293.17 233.00 C 293.11 234.75 292.49 236.41 292.23 238.14 C 292.68 247.20 295.41 256.14 299.90 264.02 C 302.75 267.32 305.33 270.83 308.09 274.21 C 304.73 273.97 303.80 270.24 301.70 268.24 C 295.35 262.05 293.12 253.15 290.88 244.89 C 289.59 231.92 293.56 218.75 301.34 208.35 Z" />
<path fill="#349000" d=" M 380.71 207.06 C 382.34 206.53 382.84 208.59 383.52 209.59 C 386.66 215.92 388.98 222.82 389.18 229.93 C 389.48 232.10 390.85 234.35 389.51 236.45 C 387.92 240.05 389.82 244.97 387.25 248.02 C 387.02 247.42 386.56 246.20 386.33 245.59 C 386.00 241.58 387.25 237.60 386.55 233.61 C 385.84 229.63 386.16 225.38 384.17 221.72 C 384.13 220.58 384.13 219.44 384.17 218.31 C 385.80 216.87 384.71 214.86 383.04 214.11 C 382.74 213.85 382.16 213.33 381.87 213.07 C 381.37 211.09 380.99 209.08 380.71 207.06 Z" />
<path fill="#143300" d=" M 386.92 208.79 C 392.26 213.52 395.64 220.15 398.20 226.73 C 401.00 234.17 400.87 242.18 400.70 250.00 C 399.15 264.95 390.80 278.84 378.68 287.66 C 357.95 303.85 324.06 301.33 307.88 279.86 C 309.19 280.20 310.50 280.57 311.80 280.97 C 313.95 282.56 316.37 283.70 318.91 284.54 C 317.87 285.82 319.78 286.72 320.76 287.04 C 322.95 287.69 324.89 288.90 326.82 290.11 C 339.06 294.50 352.92 295.94 365.30 291.22 C 371.43 288.41 377.80 285.53 382.39 280.41 C 390.57 272.80 395.44 262.00 396.86 251.01 C 398.06 242.02 395.59 233.18 393.36 224.56 C 393.24 223.14 392.01 222.48 390.95 221.82 C 390.26 220.14 390.74 218.06 389.43 216.63 C 387.79 214.33 384.75 211.79 386.92 208.79 Z" />
<path fill="#554100" d=" M 431.73 209.22 C 433.16 209.49 432.96 211.35 433.45 212.40 C 435.02 218.85 437.39 225.30 436.97 232.03 C 436.83 234.42 437.83 236.65 438.05 239.00 C 438.18 241.38 437.05 243.60 436.98 245.97 C 436.93 248.79 437.31 251.66 436.52 254.43 C 434.39 265.55 431.02 276.54 425.26 286.35 C 423.94 288.40 423.09 291.01 420.80 292.20 C 421.09 290.05 422.45 288.37 423.65 286.65 C 429.10 276.46 433.52 265.53 434.94 253.98 C 436.72 246.44 435.64 238.65 435.94 230.98 C 435.02 226.25 434.81 221.35 433.22 216.77 C 432.41 214.32 431.97 211.78 431.73 209.22 Z" />
<path fill="#aff886" d=" M 377.71 211.28 L 378.79 211.01 C 379.17 214.99 378.86 219.00 378.99 223.00 C 379.51 230.34 376.35 237.23 373.97 244.00 C 372.70 245.98 372.34 249.42 369.62 249.85 C 373.40 242.95 376.16 235.49 377.80 227.80 C 378.22 222.31 378.09 216.77 377.71 211.28 Z" />
<path fill="#68ce2f" d=" M 381.87 213.07 C 382.16 213.33 382.74 213.85 383.04 214.11 C 382.82 215.61 383.23 217.10 384.17 218.31 C 384.13 219.44 384.13 220.58 384.17 221.72 C 384.92 226.49 384.22 231.23 383.92 236.00 C 379.61 261.95 355.38 283.79 328.68 283.22 C 324.28 283.00 319.73 283.19 315.67 281.20 C 320.72 281.31 325.69 279.96 330.74 280.35 C 332.06 280.83 333.46 281.18 334.87 280.85 C 346.55 279.46 357.40 273.82 366.20 266.17 C 374.36 257.59 379.90 246.60 381.96 234.94 C 382.25 232.50 381.84 230.06 381.58 227.64 C 381.59 222.78 381.75 217.93 381.87 213.07 Z" />
<path fill="#0a1d00" d=" M 383.04 214.11 C 384.71 214.86 385.80 216.87 384.17 218.31 C 383.23 217.10 382.82 215.61 383.04 214.11 Z" />
<path fill="#060000" d=" M 522.93 214.00 C 523.16 214.32 523.61 214.96 523.84 215.28 C 524.11 218.94 524.64 222.89 523.07 226.34 C 522.93 222.23 523.05 218.11 522.93 214.00 Z" />
<path fill="#f47571" d=" M 520.30 214.70 C 521.65 222.38 520.62 230.25 520.96 238.02 C 520.27 245.08 519.39 252.14 518.08 259.13 C 517.62 261.66 518.83 264.03 519.52 266.40 C 519.39 266.89 519.14 267.86 519.01 268.35 C 518.24 267.00 518.44 264.65 516.82 264.06 C 516.95 266.75 517.44 269.41 518.21 271.99 C 517.31 271.30 516.42 270.61 515.55 269.90 C 516.06 271.98 516.67 274.04 517.27 276.11 C 516.46 275.32 515.62 274.58 514.76 273.88 C 515.13 275.54 515.59 277.18 516.02 278.83 C 515.52 278.66 514.50 278.33 514.00 278.16 C 515.41 280.85 512.97 282.88 513.73 285.64 C 511.20 288.52 510.63 292.43 509.52 295.99 C 509.57 298.79 506.54 300.28 506.50 303.03 C 505.95 306.56 503.62 309.45 501.82 312.44 C 501.77 312.53 501.65 312.73 501.60 312.83 C 501.41 313.22 501.05 313.98 500.86 314.37 C 500.82 314.47 500.73 314.68 500.69 314.78 C 499.86 318.06 497.88 320.82 495.84 323.45 C 495.78 323.54 495.66 323.74 495.60 323.83 C 495.41 324.21 495.02 324.97 494.83 325.34 C 494.78 325.45 494.68 325.66 494.63 325.77 C 494.15 326.71 493.60 327.61 492.97 328.46 C 492.90 328.56 492.77 328.75 492.70 328.85 C 492.07 329.69 491.47 330.55 490.87 331.42 C 490.82 331.51 490.72 331.68 490.66 331.77 C 490.50 332.08 490.18 332.70 490.02 333.01 C 488.51 332.45 487.07 334.40 488.82 335.22 C 488.62 335.43 488.21 335.84 488.00 336.05 C 486.42 335.40 485.11 337.50 486.88 338.27 C 486.33 338.91 485.78 339.55 485.25 340.21 C 483.80 339.66 482.29 341.47 483.93 342.38 C 483.69 342.57 483.20 342.94 482.95 343.12 C 481.05 343.49 478.62 345.18 479.92 347.34 C 479.70 347.50 479.26 347.82 479.04 347.98 C 474.37 351.30 471.26 356.24 467.39 360.36 C 465.25 362.25 463.01 364.03 461.31 366.35 C 459.45 368.82 456.20 370.00 455.02 373.00 C 454.86 373.19 454.55 373.57 454.39 373.76 C 451.79 373.21 450.36 376.34 449.01 378.04 C 448.85 378.27 448.54 378.73 448.39 378.96 C 446.68 377.37 445.24 379.56 445.20 381.22 C 444.60 381.83 444.00 382.44 443.41 383.06 C 442.56 381.29 440.58 382.81 441.27 384.32 C 440.42 384.74 439.59 385.19 438.79 385.67 C 438.71 385.73 438.55 385.86 438.47 385.93 C 436.29 388.76 433.33 390.81 429.87 391.73 C 429.78 391.78 429.60 391.88 429.51 391.94 C 428.12 393.14 426.61 394.18 424.87 394.77 C 424.77 394.82 424.59 394.92 424.50 394.97 C 418.64 399.88 410.81 401.53 404.74 406.13 C 402.86 406.73 400.96 406.51 399.16 405.79 C 399.28 406.32 399.52 407.37 399.63 407.89 C 398.00 409.50 395.87 408.17 394.05 407.74 C 394.24 408.28 394.61 409.37 394.79 409.91 C 390.77 411.13 386.81 412.53 382.86 413.94 C 379.47 412.29 375.93 413.09 372.63 414.53 C 359.48 417.02 346.17 419.76 332.71 418.74 C 336.33 417.36 340.24 418.34 343.99 417.91 C 348.64 417.39 353.26 416.62 357.88 415.85 C 392.55 410.44 425.41 394.83 452.03 372.04 C 458.38 366.76 463.78 360.44 469.79 354.79 C 484.49 338.00 496.87 319.02 505.27 298.29 C 513.16 279.55 517.41 259.43 519.34 239.24 C 520.83 231.14 519.42 222.86 520.30 214.70 Z" />
<path fill="#3d4800" d=" M 416.85 219.87 C 418.17 220.55 418.18 222.17 418.52 223.42 C 419.93 229.19 420.09 235.14 420.91 241.00 C 419.77 247.86 420.60 255.18 417.58 261.62 L 416.90 262.19 C 417.05 257.72 418.98 253.51 418.96 249.03 C 418.94 244.00 418.83 238.97 419.02 233.94 C 419.30 229.13 417.13 224.63 416.85 219.87 Z" />
<path fill="#340000" d=" M 531.01 220.89 L 531.85 221.20 C 531.53 226.20 533.34 231.00 533.00 236.00 C 532.90 244.61 533.24 253.24 532.88 261.84 L 531.99 262.14 C 531.91 252.42 532.04 242.70 532.01 232.98 C 531.29 228.99 530.59 224.97 531.01 220.89 Z" />
<path fill="#000000" d=" M 384.17 221.72 C 386.16 225.38 385.84 229.63 386.55 233.61 C 387.25 237.60 386.00 241.58 386.33 245.59 C 384.80 249.59 383.54 253.70 381.75 257.60 C 376.18 268.67 366.37 277.61 354.66 281.77 C 352.25 282.59 349.84 283.40 347.45 284.28 C 341.21 283.67 334.77 284.94 328.68 283.22 C 355.38 283.79 379.61 261.95 383.92 236.00 C 384.22 231.23 384.92 226.49 384.17 221.72 Z" />
<path fill="#ffff2c" d=" M 431.06 226.64 C 433.67 230.91 431.85 236.21 432.16 240.93 C 431.67 246.99 431.05 253.27 428.96 259.00 C 425.03 267.25 421.20 275.57 416.73 283.57 C 410.64 292.07 404.02 300.29 395.90 306.96 C 394.31 308.06 392.94 309.44 391.67 310.88 C 388.07 312.73 384.87 315.22 381.46 317.37 C 376.08 320.48 370.47 323.15 364.87 325.82 C 358.80 327.99 352.45 329.68 345.99 330.10 C 341.87 330.43 337.70 330.48 333.62 329.77 C 336.92 328.01 340.74 329.24 344.26 328.35 C 365.41 326.26 384.76 315.38 400.35 301.35 C 418.11 283.30 430.41 258.89 430.72 233.27 C 430.75 231.05 430.90 228.84 431.06 226.64 Z" />
<path fill="#000000" d=" M 379.76 234.96 C 380.29 232.50 380.80 230.04 381.58 227.64 C 381.84 230.06 382.25 232.50 381.96 234.94 C 379.90 246.60 374.36 257.59 366.20 266.17 C 357.40 273.82 346.55 279.46 334.87 280.85 C 333.46 281.18 332.06 280.83 330.74 280.35 C 353.84 275.89 373.49 257.60 379.76 234.96 Z" />
<path fill="#180000" d=" M 523.31 231.25 C 523.31 231.37 523.31 231.62 523.31 231.74 L 523.31 231.25 Z" />
<path fill="#d24643" d=" M 522.97 243.32 C 521.46 240.63 521.61 237.39 522.83 234.63 C 523.02 237.52 523.08 240.42 522.97 243.32 Z" />
<path fill="#63ff00" d=" M 387.32 239.41 C 388.74 239.70 388.64 243.35 387.33 243.70 C 386.57 242.46 386.47 240.62 387.32 239.41 Z" />
<path fill="#45bb00" d=" M 386.33 245.59 C 386.56 246.20 387.02 247.42 387.25 248.02 C 382.76 265.70 368.17 279.79 351.02 285.32 C 349.82 284.98 348.63 284.63 347.45 284.28 C 349.84 283.40 352.25 282.59 354.66 281.77 C 366.37 277.61 376.18 268.67 381.75 257.60 C 383.54 253.70 384.80 249.59 386.33 245.59 Z" />
<path fill="#514700" d=" M 416.73 283.57 C 421.20 275.57 425.03 267.25 428.96 259.00 C 428.91 260.73 428.70 262.47 428.14 264.13 C 425.73 271.56 422.74 278.85 418.57 285.49 C 417.80 286.45 417.27 287.86 415.95 288.18 C 416.16 286.63 416.41 285.09 416.73 283.57 Z" />
<path fill="#ffc2bc" d=" M 516.82 264.06 C 518.44 264.65 518.24 267.00 519.01 268.35 C 519.04 269.58 519.05 270.81 519.06 272.04 L 518.21 271.99 C 517.44 269.41 516.95 266.75 516.82 264.06 Z" />
<path fill="#ffbbb4" d=" M 514.76 273.88 C 515.62 274.58 516.46 275.32 517.27 276.11 C 517.27 277.58 516.93 279.02 516.54 280.43 C 513.22 291.01 509.61 301.55 504.46 311.40 C 503.11 313.90 501.86 316.47 501.00 319.19 C 495.65 331.28 487.16 341.72 479.06 352.09 C 477.33 354.34 474.97 356.01 473.37 358.37 C 470.36 362.97 465.54 365.88 462.20 370.20 C 458.00 372.93 454.91 376.94 450.82 379.80 C 443.08 386.20 434.80 391.91 426.29 397.25 C 425.00 398.00 423.60 398.50 422.20 398.98 C 416.03 400.54 411.20 405.62 404.74 406.13 C 410.81 401.53 418.64 399.88 424.50 394.97 L 424.87 394.77 C 426.61 394.18 428.12 393.14 429.51 391.94 L 429.87 391.73 C 433.33 390.81 436.29 388.76 438.47 385.93 L 438.79 385.67 C 439.59 385.19 440.42 384.74 441.27 384.32 C 441.81 384.01 442.88 383.37 443.41 383.06 C 444.00 382.44 444.60 381.83 445.20 381.22 C 446.56 380.99 447.81 380.27 448.39 378.96 C 448.54 378.73 448.85 378.27 449.01 378.04 C 451.04 376.94 453.07 375.73 454.39 373.76 C 454.55 373.57 454.86 373.19 455.02 373.00 C 457.80 371.17 460.56 369.23 462.69 366.65 C 465.12 363.76 468.31 361.60 470.53 358.53 C 473.13 354.81 477.08 352.17 479.04 347.98 C 479.26 347.82 479.70 347.50 479.92 347.34 C 481.65 346.57 482.53 344.88 482.95 343.12 C 483.20 342.94 483.69 342.57 483.93 342.38 C 484.26 341.84 484.92 340.75 485.25 340.21 C 485.78 339.55 486.33 338.91 486.88 338.27 C 487.16 337.71 487.72 336.61 488.00 336.05 C 488.21 335.84 488.62 335.43 488.82 335.22 C 489.12 334.67 489.72 333.56 490.02 333.01 C 490.18 332.70 490.50 332.08 490.66 331.77 L 490.87 331.42 C 491.47 330.55 492.07 329.69 492.70 328.85 L 492.97 328.46 C 493.60 327.61 494.15 326.71 494.63 325.77 L 494.83 325.34 C 495.02 324.97 495.41 324.21 495.60 323.83 L 495.84 323.45 C 497.88 320.82 499.86 318.06 500.69 314.78 L 500.86 314.37 C 501.05 313.98 501.41 313.22 501.60 312.83 L 501.82 312.44 C 503.62 309.45 505.95 306.56 506.50 303.03 C 506.54 300.28 509.57 298.79 509.52 295.99 C 510.63 292.43 511.20 288.52 513.73 285.64 C 512.97 282.88 515.41 280.85 514.00 278.16 C 514.50 278.33 515.52 278.66 516.02 278.83 C 515.59 277.18 515.13 275.54 514.76 273.88 Z" />
<path fill="#359400" d=" M 311.80 280.97 C 313.09 281.04 314.38 281.12 315.67 281.20 C 319.73 283.19 324.28 283.00 328.68 283.22 C 334.77 284.94 341.21 283.67 347.45 284.28 C 348.63 284.63 349.82 284.98 351.02 285.32 L 350.68 285.86 C 345.50 286.86 340.26 287.93 334.98 288.06 C 329.57 286.97 323.99 286.99 318.91 284.54 C 316.37 283.70 313.95 282.56 311.80 280.97 Z" />
<path fill="#675900" d=" M 414.48 289.23 C 414.87 289.11 415.66 288.88 416.05 288.77 C 412.76 295.16 407.34 300.20 402.36 305.31 C 401.43 306.37 400.28 307.20 398.81 307.25 C 401.65 302.75 406.36 299.82 409.58 295.64 C 410.85 293.21 413.24 291.67 414.48 289.23 Z" />
<path fill="#ffff2c" d=" M 273.96 299.23 C 277.08 301.96 280.05 304.89 282.76 308.04 C 279.33 305.72 276.25 302.68 273.96 299.23 Z" />
<path fill="#574200" d=" M 404.86 310.21 C 407.13 306.99 410.02 304.16 413.21 301.86 C 412.99 304.02 411.14 305.31 409.79 306.79 C 408.31 308.15 407.02 310.01 404.86 310.21 Z" />
<path fill="#394300" d=" M 307.82 307.78 C 312.51 309.41 316.85 311.97 321.65 313.37 C 330.20 315.80 339.06 317.59 348.00 316.94 C 353.06 316.15 358.14 315.26 363.25 314.78 L 362.91 315.71 C 348.05 319.68 332.09 318.55 317.73 313.27 C 314.46 311.43 309.78 311.38 307.82 307.78 Z" />
<path fill="#533e00" d=" M 391.67 310.88 C 394.38 311.07 395.42 307.74 398.08 307.86 C 397.30 310.32 394.87 311.57 392.85 312.87 C 384.22 318.40 375.14 324.25 364.87 325.82 C 370.47 323.15 376.08 320.48 381.46 317.37 C 384.87 315.22 388.07 312.73 391.67 310.88 Z" />
<path fill="#6b5d00" d=" M 283.80 308.76 C 287.17 309.89 289.66 312.53 292.60 314.40 C 307.72 324.44 326.19 329.01 344.26 328.35 C 340.74 329.24 336.92 328.01 333.62 329.77 C 333.22 329.76 332.41 329.75 332.01 329.74 C 330.25 328.38 328.00 328.54 326.00 329.18 C 325.59 329.09 324.75 328.90 324.34 328.81 C 314.29 326.25 304.15 323.29 295.30 317.71 C 291.27 315.04 286.80 312.63 283.80 308.76 Z" />
<path fill="#000000" d=" M 501.60 312.83 C 501.65 312.73 501.77 312.53 501.82 312.44 L 501.60 312.83 Z" />
<path fill="#000000" d=" M 500.69 314.78 C 500.73 314.68 500.82 314.47 500.86 314.37 L 500.69 314.78 Z" />
<path fill="#554000" d=" M 390.50 320.14 C 391.95 319.42 392.07 321.32 390.88 321.71 C 389.85 322.28 388.58 323.29 387.36 322.79 C 387.20 321.25 389.35 320.63 390.50 320.14 Z" />
<path fill="#620400" d=" M 476.02 328.01 C 477.31 326.20 478.15 323.90 480.20 322.77 C 479.76 325.66 477.67 327.80 476.20 330.20 C 474.96 332.05 473.92 334.25 471.75 335.18 C 472.50 332.44 474.59 330.40 476.02 328.01 Z" />
<path fill="#000000" d=" M 495.60 323.83 C 495.66 323.74 495.78 323.54 495.84 323.45 L 495.60 323.83 Z" />
<path fill="#000000" d=" M 494.63 325.77 C 494.68 325.66 494.78 325.45 494.83 325.34 L 494.63 325.77 Z" />
<path fill="#574200" d=" M 374.15 328.10 C 376.53 327.35 378.63 325.66 381.25 325.76 C 379.38 328.42 375.70 328.75 372.88 329.93 C 359.91 334.77 345.91 335.68 332.22 334.71 C 327.11 333.65 321.79 333.07 316.94 331.15 C 320.18 331.50 323.39 332.09 326.64 332.43 C 330.05 333.34 333.63 332.94 337.05 333.91 C 349.63 334.47 362.28 332.34 374.15 328.10 Z" />
<path fill="#000000" d=" M 492.70 328.85 C 492.77 328.75 492.90 328.56 492.97 328.46 L 492.70 328.85 Z" />
<path fill="#040300" d=" M 326.00 329.18 C 328.00 328.54 330.25 328.38 332.01 329.74 C 330.00 330.40 327.75 330.55 326.00 329.18 Z" />
<path fill="#000000" d=" M 490.66 331.77 C 490.72 331.68 490.82 331.51 490.87 331.42 L 490.66 331.77 Z" />
<path fill="#050000" d=" M 488.82 335.22 C 487.07 334.40 488.51 332.45 490.02 333.01 C 489.72 333.56 489.12 334.67 488.82 335.22 Z" />
<path fill="#050000" d=" M 486.88 338.27 C 485.11 337.50 486.42 335.40 488.00 336.05 C 487.72 336.61 487.16 337.71 486.88 338.27 Z" />
<path fill="#620400" d=" M 464.76 344.17 C 465.07 341.66 467.21 340.03 469.24 338.84 C 468.91 341.34 466.77 342.96 464.76 344.17 Z" />
<path fill="#050000" d=" M 483.93 342.38 C 482.29 341.47 483.80 339.66 485.25 340.21 C 484.92 340.75 484.26 341.84 483.93 342.38 Z" />
<path fill="#050000" d=" M 479.92 347.34 C 478.62 345.18 481.05 343.49 482.95 343.12 C 482.53 344.88 481.65 346.57 479.92 347.34 Z" />
<path fill="#620400" d=" M 223.74 343.84 C 225.77 345.02 227.94 346.65 228.21 349.18 C 226.17 348.02 223.94 346.39 223.74 343.84 Z" />
<path fill="#5f0400" d=" M 455.27 353.29 C 457.93 350.80 460.10 347.71 463.25 345.80 C 463.09 348.00 461.18 349.31 459.78 350.77 C 456.65 353.64 453.77 356.75 450.79 359.77 C 449.98 360.62 448.98 361.12 447.79 361.24 C 449.71 358.10 452.80 355.97 455.27 353.29 Z" />
<path fill="#050000" d=" M 467.39 360.36 C 471.26 356.24 474.37 351.30 479.04 347.98 C 477.08 352.17 473.13 354.81 470.53 358.53 C 468.31 361.60 465.12 363.76 462.69 366.65 C 460.56 369.23 457.80 371.17 455.02 373.00 C 456.20 370.00 459.45 368.82 461.31 366.35 C 463.01 364.03 465.25 362.25 467.39 360.36 Z" />
<path fill="#620400" d=" M 241.83 362.77 C 244.34 363.07 245.96 365.22 247.16 367.24 C 244.65 366.92 243.02 364.79 241.83 362.77 Z" />
<path fill="#620400" d=" M 426.39 376.38 C 429.17 375.13 431.13 372.48 434.17 371.75 C 433.59 372.93 432.74 373.96 431.60 374.64 C 419.18 382.59 405.77 388.97 391.88 393.90 C 379.83 397.35 367.49 400.07 355.01 401.05 C 346.03 400.90 337.03 401.14 328.05 400.92 C 321.00 399.40 313.70 399.37 306.80 397.19 C 291.74 393.82 277.55 387.42 264.20 379.80 C 261.10 377.45 256.74 376.37 254.83 372.75 C 258.09 373.61 260.22 376.48 263.29 377.75 C 283.48 389.74 306.26 397.90 329.79 399.23 C 333.75 400.45 337.92 399.95 342.00 400.00 C 347.02 399.89 352.14 400.53 357.04 399.09 C 366.34 399.09 375.43 396.63 384.41 394.43 C 399.28 390.75 413.18 384.02 426.39 376.38 Z" />
<path fill="#050000" d=" M 449.01 378.04 C 450.36 376.34 451.79 373.21 454.39 373.76 C 453.07 375.73 451.04 376.94 449.01 378.04 Z" />
<path fill="#050000" d=" M 445.20 381.22 C 445.24 379.56 446.68 377.37 448.39 378.96 C 447.81 380.27 446.56 380.99 445.20 381.22 Z" />
<path fill="#050000" d=" M 441.27 384.32 C 440.58 382.81 442.56 381.29 443.41 383.06 C 442.88 383.37 441.81 384.01 441.27 384.32 Z" />
<path fill="#000000" d=" M 218.91 384.06 C 220.43 383.58 221.94 384.59 221.85 386.25 C 220.46 386.24 219.29 385.39 218.91 384.06 Z" />
<path fill="#000000" d=" M 438.47 385.93 C 438.55 385.86 438.71 385.73 438.79 385.67 L 438.47 385.93 Z" />
<path fill="#010000" d=" M 222.95 386.95 C 223.42 387.29 224.37 387.96 224.84 388.30 C 224.37 387.96 223.42 387.29 222.95 386.95 Z" />
<path fill="#000000" d=" M 435.28 387.29 C 435.79 387.81 435.79 387.81 435.28 387.29 Z" />
<path fill="#000000" d=" M 432.27 389.30 C 432.78 389.81 432.78 389.81 432.27 389.30 Z" />
<path fill="#000000" d=" M 429.51 391.94 C 429.60 391.88 429.78 391.78 429.87 391.73 L 429.51 391.94 Z" />
<path fill="#1e0000" d=" M 424.50 394.97 C 424.59 394.92 424.77 394.82 424.87 394.77 L 424.50 394.97 Z" />
<path fill="#ffbbb4" d=" M 267.96 409.80 C 270.33 410.41 272.76 410.74 275.19 411.03 C 288.45 415.01 302.14 417.78 315.99 418.29 C 321.53 419.01 327.14 419.37 332.71 418.74 C 346.17 419.76 359.48 417.02 372.63 414.53 C 373.52 415.38 374.36 416.28 375.17 417.23 C 373.07 416.83 371.02 416.29 368.96 415.78 C 369.65 416.60 370.35 417.43 371.05 418.26 C 367.23 416.66 363.19 417.46 359.26 418.05 C 359.40 418.56 359.68 419.60 359.82 420.12 C 357.47 419.39 354.39 417.75 352.61 420.37 C 349.64 419.95 346.58 419.32 343.84 420.97 C 343.13 420.97 341.72 420.99 341.01 421.00 C 334.46 420.87 327.88 420.63 321.34 421.11 C 318.21 420.97 315.08 421.10 311.96 420.96 C 299.84 419.59 287.61 418.03 275.99 414.23 C 273.57 412.24 270.04 412.26 267.96 409.80 Z" />
<path fill="#180000" d=" M 341.01 421.00 C 341.72 420.99 343.13 420.97 343.84 420.97 C 343.63 422.69 341.27 422.69 341.01 421.00 Z" />
<path fill="#330000" d=" M 318.87 426.97 C 322.99 426.38 326.91 428.13 331.01 428.01 C 334.37 428.05 337.60 429.38 341.00 429.04 C 349.66 428.63 358.45 429.87 366.98 428.02 C 371.43 428.28 375.68 426.36 380.14 426.94 L 379.84 427.80 C 373.90 428.68 367.93 429.00 362.02 429.97 C 353.67 430.00 345.32 430.00 336.98 429.97 C 331.09 428.94 325.13 428.64 319.21 427.78 L 318.87 426.97 Z" />
</svg>
