<?xml version="1.0" encoding="UTF-8" standalone="no"?>
<!-- Created with Inkscape (http://www.inkscape.org/) -->

<svg
   xmlns:dc="http://purl.org/dc/elements/1.1/"
   xmlns:cc="http://creativecommons.org/ns#"
   xmlns:rdf="http://www.w3.org/1999/02/22-rdf-syntax-ns#"
   xmlns:svg="http://www.w3.org/2000/svg"
   xmlns="http://www.w3.org/2000/svg"
   xmlns:xlink="http://www.w3.org/1999/xlink"
   xmlns:sodipodi="http://sodipodi.sourceforge.net/DTD/sodipodi-0.dtd"
   xmlns:inkscape="http://www.inkscape.org/namespaces/inkscape"
   width="64px"
   height="64px"
   id="svg3014"
   version="1.1"
   inkscape:version="0.48.5 r10040"
   sodipodi:docname="logo.svg">
  <defs
     id="defs3016">
    <linearGradient
       inkscape:collect="always"
       id="linearGradient8715">
      <stop
         style="stop-color:#ff5400;stop-opacity:1;"
         offset="0"
         id="stop8717" />
      <stop
         style="stop-color:#ff5400;stop-opacity:0;"
         offset="1"
         id="stop8719" />
    </linearGradient>
    <inkscape:perspective
       sodipodi:type="inkscape:persp3d"
       inkscape:vp_x="0 : 32 : 1"
       inkscape:vp_y="0 : 1000 : 0"
       inkscape:vp_z="64 : 32 : 1"
       inkscape:persp3d-origin="32 : 21.333333 : 1"
       id="perspective6320" />
    <clipPath
       clipPathUnits="userSpaceOnUse"
       id="clipPath8633">
      <rect
         style="fill:#b16b7a;fill-opacity:1;stroke:none"
         id="rect8635"
         width="492.41"
         height="492.41"
         x="81.546997"
         y="0" />
    </clipPath>
    <linearGradient
       inkscape:collect="always"
       xlink:href="#linearGradient8715"
       id="linearGradient8721"
       x1="-6.2440011"
       y1="60.047543"
       x2="69.715056"
       y2="60.047543"
       gradientUnits="userSpaceOnUse" />
  </defs>
  <sodipodi:namedview
     id="base"
     pagecolor="#ffffff"
     bordercolor="#666666"
     borderopacity="1.0"
     inkscape:pageopacity="0.0"
     inkscape:pageshadow="2"
     inkscape:zoom="3.7739769"
     inkscape:cx="-0.91863936"
     inkscape:cy="21.345717"
     inkscape:current-layer="layer1"
     showgrid="true"
     inkscape:document-units="px"
     inkscape:grid-bbox="true"
     showguides="true"
     inkscape:guide-bbox="true"
     inkscape:snap-page="true"
     inkscape:window-width="1276"
     inkscape:window-height="755"
     inkscape:window-x="0"
     inkscape:window-y="0"
     inkscape:window-maximized="1" />
  <metadata
     id="metadata3019">
    <rdf:RDF>
      <cc:Work
         rdf:about="">
        <dc:format>image/svg+xml</dc:format>
        <dc:type
           rdf:resource="http://purl.org/dc/dcmitype/StillImage" />
        <dc:title></dc:title>
      </cc:Work>
    </rdf:RDF>
  </metadata>
  <g
     inkscape:groupmode="layer"
     id="layer4"
     inkscape:label="Layer#2">
    <g
       id="g8474"
       transform="matrix(0.13052489,0,0,0.13052489,-10.257275,0.14245819)"
       clip-path="url(#clipPath8633)">
      <path
         id="path8272"
         d="M 0,0 679,0 679,488 0,488 0,0 z"
         inkscape:connector-curvature="0"
         style="fill:#000000" />
      <path
         id="path8274"
         d="m 251.6,51.56 c 21.11,-10.14 44.11,-16.43 67.39,-18.6 8.99,0.15 17.99,-0.08 26.97,0.09 3.58,1.19 7.3,0.93 11,1 2.62,0.71 5.29,1.04 8,1.05 11.9,2.19 23.77,4.68 35.2,8.77 20.39,7.74 40.05,18.03 56.71,32.24 4.79,3.16 7.95,8.18 12.89,11.16 0.09,0.65 0.29,1.94 0.39,2.58 0.64,0.1 1.94,0.29 2.58,0.39 2.56,4.36 6.93,7.16 9.7,11.35 9.52,10.56 16.38,23.12 23.9,35.07 9.47,18.58 15.26,38.82 18.66,59.36 0.15,1.85 -0.13,3.76 0.41,5.58 1.6,5.14 -0.38,10.65 1.21,15.79 1.73,6.9 -1.33,13.7 -0.52,20.63 -1.57,13.08 -3.67,26.2 -7.04,39 -3.99,13.83 -9.37,27.24 -16.02,40 -0.45,0.92 -1.13,1.64 -2.03,2.17 0.86,-2.72 2.11,-5.29 3.46,-7.79 5.15,-9.85 8.76,-20.39 12.08,-30.97 0.39,-1.41 0.73,-2.85 0.73,-4.32 -0.6,-2.07 -1.21,-4.13 -1.72,-6.21 0.87,0.71 1.76,1.4 2.66,2.09 l 0.85,0.05 c -0.01,-1.23 -0.02,-2.46 -0.05,-3.69 0.13,-0.49 0.38,-1.46 0.51,-1.95 1.2,-2.84 -0.59,-5.68 -0.79,-8.53 1.73,0.26 0.76,3.1 2.57,3.16 -0.44,-3.06 -1.42,-6.03 -1.54,-9.14 1.91,0.03 0.53,3.35 2.51,3.11 -0.07,-3.72 -1.71,-7.23 -1.45,-10.97 2.03,-0.42 0.36,3.25 2.35,2.96 -0.05,-1.23 -0.12,-2.45 -0.2,-3.67 0.11,-2.9 0.05,-5.8 -0.14,-8.69 0.12,-0.72 0.36,-2.17 0.48,-2.89 0,-0.12 0,-0.37 0,-0.49 -0.12,-1.64 -0.28,-3.27 -0.24,-4.91 1.57,-3.45 1.04,-7.4 0.77,-11.06 -0.23,-0.32 -0.68,-0.96 -0.91,-1.28 -1.41,-1.21 -0.93,-3.06 -0.82,-4.66 1.86,-3.61 0.33,-7.59 -0.07,-11.35 -2.44,-19.59 -8.08,-38.75 -16.35,-56.67 -3.95,-7.85 -8.81,-15.19 -13.28,-22.73 C 485.75,108.44 477.78,99.29 469.72,90.26 452.38,73.86 432.52,59.72 410.28,50.75 388.99,41.74 366.01,37.08 343,35.94 c -6.49,0.17 -12.99,0.07 -19.48,-0.2 -25.77,1.08 -50.95,8.72 -74.21,19.58 -4.4,4.49 -10.3,6.65 -15.98,9.03 -48.31,28.64 -82.72,79.08 -92.75,134.24 -2.28,9.31 -2.25,18.94 -3.58,28.38 0.17,6.66 -0.76,13.48 1.12,19.97 1.1,2.9 -0.52,5.91 0.08,8.83 2.36,7.6 2.99,15.58 4.63,23.35 0.13,4.97 1.92,9.58 3.99,14.02 8.71,26.32 22.55,51.2 41.75,71.3 2.4,3.56 5.7,6.31 9.08,8.89 20.31,19.07 45.33,32.74 71.81,41.13 9.82,2.56 19.67,5.14 29.79,6.21 7.29,0.7 14.91,2.7 22.09,0.44 6.54,-0.48 13.12,-0.24 19.67,-0.11 0.26,1.69 2.62,1.69 2.83,-0.03 2.74,-1.65 5.8,-1.02 8.77,-0.6 1.78,-2.62 4.86,-0.98 7.21,-0.25 -0.14,-0.52 -0.42,-1.56 -0.56,-2.07 3.93,-0.59 7.97,-1.39 11.79,0.21 -0.7,-0.83 -1.4,-1.66 -2.09,-2.48 2.06,0.51 4.11,1.05 6.21,1.45 -0.81,-0.95 -1.65,-1.85 -2.54,-2.7 3.3,-1.44 6.84,-2.24 10.23,-0.59 3.95,-1.41 7.91,-2.81 11.93,-4.03 -0.18,-0.54 -0.55,-1.63 -0.74,-2.17 1.82,0.43 3.95,1.76 5.58,0.15 -0.11,-0.52 -0.35,-1.57 -0.47,-2.1 1.8,0.72 3.7,0.94 5.58,0.34 6.46,-0.51 11.29,-5.59 17.46,-7.15 -1.26,2.29 -4.08,2.8 -6.19,4.04 -20.11,10.55 -42.1,17.45 -64.6,20.44 -3.75,1.02 -7.72,0.2 -11.44,1.5 -9.99,0.18 -20,-0.1 -29.99,0.17 -8.17,-1.37 -16.4,-2.39 -24.61,-3.47 -4.95,-1.7 -10.05,-2.94 -15.2,-3.86 -12.55,-4.71 -25.41,-9.03 -36.97,-15.99 -11.39,-6.2 -22.01,-13.74 -31.97,-22.05 -3.3,-3.36 -6.56,-6.78 -10.32,-9.64 -2.21,-1.52 -3.31,-4.03 -5.14,-5.89 -6.84,-6.28 -12.07,-14.02 -17.58,-21.43 -7.05,-9.78 -12.22,-20.68 -17.49,-31.47 -2.47,-6.34 -5.08,-12.64 -6.79,-19.23 -3.03,-4.02 -4.05,-9.1 -4.01,-14.06 -1.25,-6.19 -2.44,-12.4 -3.23,-18.66 -0.6,-1.46 -1.69,-2.78 -1.71,-4.42 -0.48,-2.93 1.96,-5.68 0.75,-8.58 -0.89,-1.67 -1.94,-3.36 -1.72,-5.35 0.15,-4.94 -0.32,-9.92 0.23,-14.83 1.28,-3.61 0.57,-7.43 0.83,-11.16 1.2,-4.88 1.09,-9.93 2.22,-14.83 3.61,-18.13 8.8,-36.11 17.4,-52.54 7.78,-16.33 17.83,-31.63 29.9,-45.08 3.57,-5.37 9.21,-8.83 13.16,-13.86 3.41,-3.98 7.99,-6.62 11.56,-10.44 7.64,-5.73 15.16,-11.69 23.36,-16.62 4.59,-1.42 8.68,-3.98 13.03,-5.96 2.33,-0.96 3.14,-3.95 5.92,-4.15 z"
         inkscape:connector-curvature="0"
         style="fill:#f48582" />
      <path
         id="path8276"
         d="m 323.52,35.74 c 6.49,0.27 12.99,0.37 19.48,0.2 23.01,1.14 45.99,5.8 67.28,14.81 22.24,8.97 42.1,23.11 59.44,39.51 8.06,9.03 16.03,18.18 22.69,28.33 4.47,7.54 9.33,14.88 13.28,22.73 8.27,17.92 13.91,37.08 16.35,56.67 0.4,3.76 1.93,7.74 0.07,11.35 -0.94,-15.8 -4.6,-31.43 -9.85,-46.33 -1.93,-7.56 -5.5,-14.57 -8.54,-21.7 -5.48,-8.28 -9.72,-17.35 -15.86,-25.18 -4.65,-6.29 -9.4,-12.53 -15.07,-17.93 C 468.87,92.8 463.2,89.15 458.73,84.26 429.25,58.46 391.2,42.49 352.1,39.78 c -9.95,-1.63 -20.08,-0.37 -30.11,-0.83 -15.79,1.1 -31.45,4.37 -46.37,9.67 -8.81,2.95 -17.92,5.88 -25.37,11.62 -4.6,2.55 -9.21,5.14 -14.21,6.85 -51.31,31.35 -87.96,86.59 -94.39,146.66 -1.12,5.11 -0.15,10.39 -1.35,15.49 -0.54,6.05 -1,12.42 1.31,18.18 1.23,3.02 -1.44,6.13 -0.23,9.16 2.11,5.87 2.5,12.12 3.9,18.16 0.93,3.94 0.43,8.14 2.02,11.92 4.5,9.54 7.02,19.87 11.69,29.35 7.79,15.77 17.43,30.7 29.24,43.76 4.85,4.81 9.7,9.63 14.49,14.5 19.96,18.01 43.89,31.44 69.53,39.43 1.23,0.22 2.48,0.39 3.74,0.53 11.62,3.8 23.85,5.36 35.97,6.73 3.12,0.14 6.25,0.01 9.38,0.15 -7.18,2.26 -14.8,0.26 -22.09,-0.44 -10.12,-1.07 -19.97,-3.65 -29.79,-6.21 -26.48,-8.39 -51.5,-22.06 -71.81,-41.13 -3.38,-2.58 -6.68,-5.33 -9.08,-8.89 -19.2,-20.1 -33.04,-44.98 -41.75,-71.3 -2.07,-4.44 -3.86,-9.05 -3.99,-14.02 -1.64,-7.77 -2.27,-15.75 -4.63,-23.35 -0.6,-2.92 1.02,-5.93 -0.08,-8.83 -1.88,-6.49 -0.95,-13.31 -1.12,-19.97 1.33,-9.44 1.3,-19.07 3.58,-28.38 10.03,-55.16 44.44,-105.6 92.75,-134.24 5.68,-2.38 11.58,-4.54 15.98,-9.03 23.26,-10.86 48.44,-18.5 74.21,-19.58 z"
         inkscape:connector-curvature="0"
         style="fill:#000000" />
      <path
         id="path8278"
         d="m 275.62,48.62 c 14.92,-5.3 30.58,-8.57 46.37,-9.67 10.03,0.46 20.16,-0.8 30.11,0.83 39.1,2.71 77.15,18.68 106.63,44.48 4.47,4.89 10.14,8.54 14.06,13.94 5.67,5.4 10.42,11.64 15.07,17.93 6.14,7.83 10.38,16.9 15.86,25.18 3.04,7.13 6.61,14.14 8.54,21.7 -3.91,-3.87 -3.16,-10.5 -7.6,-13.94 -2.55,-3.57 -3.87,-7.82 -6.28,-11.47 -4.08,-7.43 -8.62,-14.59 -13.31,-21.65 -0.82,-1.15 -1.85,-2.13 -2.86,-3.1 -0.27,-0.51 -0.81,-1.53 -1.08,-2.05 -0.92,-0.97 -1.83,-1.94 -2.74,-2.92 -5.01,-6.61 -10.33,-13.21 -16.95,-18.32 -34.63,-32.1 -82.37,-49.27 -129.47,-47.52 -6.69,-1.14 -13.43,-0.08 -20.1,0.74 -20.05,2.56 -39.62,8.55 -57.83,17.27 -5.75,3.79 -11.57,7.52 -18.06,9.92 C 223.26,77.43 211.88,87 201.1,97 c -1.57,-0.16 -2.27,0.54 -2.1,2.1 -13.35,14.02 -24.85,29.84 -33.92,46.96 -11.41,22.02 -18.52,46.25 -21.02,70.92 -1.05,10.8 -2.29,21.94 0.39,32.6 0.28,2.12 -0.48,4.21 -0.47,6.34 2.57,6.9 2.75,14.36 4.61,21.47 0.11,5.3 1.42,10.36 3.96,15.03 7.27,22.08 18.25,43.01 32.99,61.05 2.73,3.88 6.7,6.66 9.44,10.54 1.59,2.4 4.04,3.96 6.21,5.79 5.13,5.02 10.59,9.83 16.8,13.49 0.23,0.19 0.69,0.58 0.92,0.77 0.38,1.33 1.55,2.18 2.94,2.19 0.28,0.17 0.82,0.53 1.1,0.7 0.47,0.34 1.42,1.01 1.89,1.35 2.28,2.16 5.03,3.66 7.81,5.08 9.97,5.81 20.52,10.66 31.46,14.33 1.38,0.5 2.65,1.25 3.85,2.09 2.08,2.46 5.61,2.44 8.03,4.43 -1.26,-0.14 -2.51,-0.31 -3.74,-0.53 -25.64,-7.99 -49.57,-21.42 -69.53,-39.43 -4.79,-4.87 -9.64,-9.69 -14.49,-14.5 -11.81,-13.06 -21.45,-27.99 -29.24,-43.76 -4.67,-9.48 -7.19,-19.81 -11.69,-29.35 -1.59,-3.78 -1.09,-7.98 -2.02,-11.92 -1.4,-6.04 -1.79,-12.29 -3.9,-18.16 -1.21,-3.03 1.46,-6.14 0.23,-9.16 -2.31,-5.76 -1.85,-12.13 -1.31,-18.18 1.2,-5.1 0.23,-10.38 1.35,-15.49 6.43,-60.07 43.08,-115.31 94.39,-146.66 5,-1.71 9.61,-4.3 14.21,-6.85 7.45,-5.74 16.56,-8.67 25.37,-11.62 z"
         inkscape:connector-curvature="0"
         style="fill:#ec7571" />
      <path
         id="path8280"
         d="m 311.87,42.78 c 6.67,-0.82 13.41,-1.88 20.1,-0.74 47.1,-1.75 94.84,15.42 129.47,47.52 6.62,5.11 11.94,11.71 16.95,18.32 -5.84,-3.74 -10.04,-9.48 -15.11,-14.15 -30.05,-28.08 -70.41,-44.17 -111.27,-46.79 -7.08,-0.14 -14.24,0.7 -21.25,-0.63 -24.31,1.46 -48.39,7.63 -70.45,18 -5.99,4.36 -12.66,7.61 -19.41,10.58 -9.81,6.3 -19.32,13.2 -27.79,21.23 -4.19,2.76 -7.01,6.98 -10.85,10.13 -11.74,13.22 -22.99,27.18 -30.95,43.08 -11.41,20.86 -18.6,43.96 -21.53,67.54 -1.49,6.05 -0.05,12.32 -1.49,18.36 -1.62,7.6 2.84,15.07 1.02,22.66 1.83,7.67 2.75,15.53 4.53,23.22 0.04,6.66 3.64,12.38 5.45,18.61 8.17,24.09 21.64,46.38 39.31,64.69 3.09,4.23 7.26,7.4 11.14,10.84 2.52,2.94 6.33,4.58 8.25,8.04 -6.21,-3.66 -11.67,-8.47 -16.8,-13.49 -2.17,-1.83 -4.62,-3.39 -6.21,-5.79 -2.74,-3.88 -6.71,-6.66 -9.44,-10.54 -14.74,-18.04 -25.72,-38.97 -32.99,-61.05 -2.54,-4.67 -3.85,-9.73 -3.96,-15.03 -1.86,-7.11 -2.04,-14.57 -4.61,-21.47 -0.01,-2.13 0.75,-4.22 0.47,-6.34 -2.68,-10.66 -1.44,-21.8 -0.39,-32.6 2.5,-24.67 9.61,-48.9 21.02,-70.92 9.07,-17.12 20.57,-32.94 33.92,-46.96 1.21,-0.19 1.91,-0.89 2.1,-2.1 10.78,-10 22.16,-19.57 34.88,-27.03 6.49,-2.4 12.31,-6.13 18.06,-9.92 18.21,-8.72 37.78,-14.71 57.83,-17.27 z"
         inkscape:connector-curvature="0"
         style="fill:#000000" />
      <path
         id="path8282"
         d="m 260.31,64.31 c 22.06,-10.37 46.14,-16.54 70.45,-18 7.01,1.33 14.17,0.49 21.25,0.63 40.86,2.62 81.22,18.71 111.27,46.79 5.07,4.67 9.27,10.41 15.11,14.15 0.91,0.98 1.82,1.95 2.74,2.92 0.07,0.43 0.21,1.29 0.28,1.72 l 0.8,0.33 c 1.01,0.97 2.04,1.95 2.86,3.1 4.69,7.06 9.23,14.22 13.31,21.65 2.41,3.65 3.73,7.9 6.28,11.47 0.98,2.66 1.74,5.4 2.39,8.16 -1.25,-1.93 -2.34,-3.95 -3.15,-6.1 -2.09,-5.55 -5.84,-10.23 -8.64,-15.41 -4.22,-7.81 -9.55,-14.96 -15.16,-21.81 -3.34,-3.65 -5.92,-8.03 -10.01,-10.94 C 465.23,96.79 458.75,92.25 452.81,87.2 424.11,64.95 388.55,51.37 352.24,49.7 c -8,-1.47 -16.18,-0.33 -24.26,-0.75 -23.04,1.63 -45.69,7.73 -66.68,17.32 -3.57,1.62 -6.43,4.39 -9.93,6.13 -3.34,1.72 -7.02,2.73 -10.19,4.78 -11.51,7.56 -22.88,15.58 -32.42,25.58 -24.22,23.14 -41.56,53.1 -50.76,85.23 -3.8,13.71 -6.04,27.82 -7.06,41.99 0.36,6.75 -0.62,13.59 0.76,20.26 0.57,3.2 0.1,6.46 0.4,9.68 2.02,9.46 3.87,18.98 5.44,28.53 0.75,3.3 2.71,6.15 3.61,9.41 7.68,24.38 21.53,46.5 38.58,65.42 5.01,4.67 9.33,10.16 15.22,13.81 1.81,2.21 4.17,3.84 6.48,5.5 8.48,6.41 17.48,12.14 26.89,17.12 8.78,4.18 17.82,7.78 26.87,11.32 -2.43,-0.29 -4.86,-0.62 -7.23,-1.23 -1.2,-0.84 -2.47,-1.59 -3.85,-2.09 -10.94,-3.67 -21.49,-8.52 -31.46,-14.33 -2.78,-1.42 -5.53,-2.92 -7.81,-5.08 -0.47,-0.34 -1.42,-1.01 -1.89,-1.35 -0.28,-0.17 -0.82,-0.53 -1.1,-0.7 0.09,-1.66 -1.42,-2.67 -2.94,-2.19 -0.23,-0.19 -0.69,-0.58 -0.92,-0.77 -1.92,-3.46 -5.73,-5.1 -8.25,-8.04 -3.88,-3.44 -8.05,-6.61 -11.14,-10.84 -17.67,-18.31 -31.14,-40.6 -39.31,-64.69 -1.81,-6.23 -5.41,-11.95 -5.45,-18.61 -1.78,-7.69 -2.7,-15.55 -4.53,-23.22 1.82,-7.59 -2.64,-15.06 -1.02,-22.66 1.44,-6.04 0,-12.31 1.49,-18.36 2.93,-23.58 10.12,-46.68 21.53,-67.54 7.96,-15.9 19.21,-29.86 30.95,-43.08 3.84,-3.15 6.66,-7.37 10.85,-10.13 8.47,-8.03 17.98,-14.93 27.79,-21.23 6.75,-2.97 13.42,-6.22 19.41,-10.58 z"
         inkscape:connector-curvature="0"
         style="fill:#d24643" />
      <path
         id="path8284"
         d="m 261.3,66.27 c 20.99,-9.59 43.64,-15.69 66.68,-17.32 8.08,0.42 16.26,-0.72 24.26,0.75 36.31,1.67 71.87,15.25 100.57,37.5 5.94,5.05 12.42,9.59 17.28,15.77 -4.56,-1.84 -8.53,-4.81 -12.69,-7.38 -10.32,-6.92 -21.59,-12.25 -33.09,-16.9 -4.66,-1.78 -9.44,-3.51 -14.48,-3.59 -4.74,-1.41 -9.27,-3.4 -13.94,-5 -17.5,-5.05 -35.64,-8.46 -53.89,-8.07 -24.69,-0.9 -49.17,5.48 -71.68,15.31 -6,2.9 -11.22,7.26 -17.59,9.45 -11.81,6.72 -22.36,15.43 -32.46,24.45 -2.92,3.75 -7.04,6.34 -9.72,10.3 -26.36,29.1 -43.16,66.96 -45.85,106.22 -1.16,6.97 -0.74,14.11 -0.5,21.14 1.34,5.3 0.14,10.87 1.8,16.1 1.15,4.13 1.36,8.45 2.47,12.59 1.45,5 1.45,10.39 3.8,15.12 3.6,10.21 7.45,20.38 12.58,29.93 -0.28,1.2 -0.81,2.46 -0.19,3.66 1.44,4.01 3.26,7.89 5.52,11.52 2.71,4.4 4.57,9.26 7.34,13.64 3.42,5.48 7.33,10.64 11.17,15.84 2.25,3.16 5.55,5.77 6.26,9.79 -5.89,-3.65 -10.21,-9.14 -15.22,-13.81 -17.05,-18.92 -30.9,-41.04 -38.58,-65.42 -0.9,-3.26 -2.86,-6.11 -3.61,-9.41 -1.57,-9.55 -3.42,-19.07 -5.44,-28.53 -0.3,-3.22 0.17,-6.48 -0.4,-9.68 -1.38,-6.67 -0.4,-13.51 -0.76,-20.26 1.02,-14.17 3.26,-28.28 7.06,-41.99 9.2,-32.13 26.54,-62.09 50.76,-85.23 9.54,-10 20.91,-18.02 32.42,-25.58 3.17,-2.05 6.85,-3.06 10.19,-4.78 3.5,-1.74 6.36,-4.51 9.93,-6.13 z"
         inkscape:connector-curvature="0"
         style="fill:#000000" />
      <path
         id="path8286"
         d="m 270.32,77.34 c 22.51,-9.83 46.99,-16.21 71.68,-15.31 18.25,-0.39 36.39,3.02 53.89,8.07 4.67,1.6 9.2,3.59 13.94,5 9.96,4.76 20.02,9.54 29,16.05 5.24,3.31 9.79,7.56 14.73,11.29 4.57,3.42 7.76,8.26 12.15,11.88 4.51,3.84 8,8.65 11.86,13.12 13.96,18.31 25.1,39.05 30.5,61.54 2.67,9.82 3.96,19.94 5.2,30 -0.39,8.35 -0.38,16.71 -0.26,25.06 -2.17,23.26 -7.58,46.58 -18.71,67.28 -5.89,12.74 -14.09,24.24 -22.86,35.14 -3.12,4.16 -7.11,7.53 -10.7,11.27 -20.92,22.12 -48.03,38.13 -77.16,46.8 -11.31,3.06 -22.91,5.06 -34.54,6.42 -9.03,-0.09 -18.04,0.53 -27.06,0.15 -34.41,-2.29 -67.91,-15.65 -94.61,-37.45 -4.31,-4.05 -9.28,-7.37 -12.94,-12.08 -5.03,-4 -8.68,-9.32 -12.95,-14.07 -6.5,-7.6 -11.45,-16.34 -16.63,-24.86 -5.13,-9.55 -8.98,-19.72 -12.58,-29.93 -2.35,-4.73 -2.35,-10.12 -3.8,-15.12 -1.11,-4.14 -1.32,-8.46 -2.47,-12.59 -1.66,-5.23 -0.46,-10.8 -1.8,-16.1 -0.24,-7.03 -0.66,-14.17 0.5,-21.14 2.69,-39.26 19.49,-77.12 45.85,-106.22 2.68,-3.96 6.8,-6.55 9.72,-10.3 10.1,-9.02 20.65,-17.73 32.46,-24.45 6.37,-2.19 11.59,-6.55 17.59,-9.45 z"
         inkscape:connector-curvature="0"
         style="fill:#bf2621" />
      <path
         id="path8288"
         d="m 326.39,64.38 c 6.46,-1.01 13.08,-0.1 19.61,-0.45 5.09,-0.46 9.91,1.71 15.02,1.03 9.48,1.63 19.21,2.47 28.36,5.7 13.93,3.47 26.91,9.78 39.6,16.35 11.46,7.25 22.95,14.86 32.18,24.88 10.63,9.89 19.42,21.66 26.77,34.16 3.83,7.52 8.59,14.6 11.3,22.66 5.27,14.89 9.99,30.27 11.02,46.08 1.52,5.27 0.51,10.81 0.79,16.21 -0.25,6.35 0.71,12.82 -0.87,19.05 -3.19,30.95 -14.49,61.06 -32.95,86.16 -3.54,5.05 -7.63,9.72 -11.46,14.56 -5.34,4.99 -10.06,10.66 -15.76,15.24 -11.33,9.73 -23.77,18.32 -37.32,24.67 -20.54,10.92 -43.69,16.26 -66.67,18.4 -8.35,-0.1 -16.69,0.01 -25.03,-0.07 -16.14,-2.49 -32.77,-4.47 -47.81,-11.19 -5.29,-1.21 -9.62,-4.72 -14.79,-6.22 -2.29,-0.9 -4.11,-2.67 -6.36,-3.64 -5.77,-2.6 -10.69,-6.64 -16.01,-9.98 -4.46,-3.52 -9.41,-6.49 -13.24,-10.75 -4.64,-3.64 -9.17,-7.58 -12.64,-12.38 -8.64,-9.27 -16.09,-19.7 -22.02,-30.9 -2.8,-6.44 -6.79,-12.31 -9.06,-18.98 -2.11,-4.72 -2.87,-9.98 -5.56,-14.44 -1.72,-4.18 -1.37,-8.87 -2.91,-13.12 -1.68,-5.17 -1.03,-10.79 -3.27,-15.77 -0.88,-4.52 0.33,-9.25 -1.29,-13.68 0.06,-6 -0.75,-12.15 0.89,-18 -0.26,-7.83 1.24,-15.53 2.8,-23.18 6.34,-32.75 22.32,-63.58 45.4,-87.63 2.97,-4.7 8.1,-7.23 11.6,-11.43 6.53,-5.55 13.34,-10.8 20.47,-15.56 6.12,-4.09 13.56,-5.95 19.2,-10.78 18.86,-8.84 39.25,-14.87 60.01,-17 z"
         inkscape:connector-curvature="0"
         style="fill:#020000" />
      <path
         id="path8290"
         d="m 409.83,75.1 c 5.04,0.08 9.82,1.81 14.48,3.59 11.5,4.65 22.77,9.98 33.09,16.9 4.16,2.57 8.13,5.54 12.69,7.38 4.09,2.91 6.67,7.29 10.01,10.94 5.61,6.85 10.94,14 15.16,21.81 2.8,5.18 6.55,9.86 8.64,15.41 0.81,2.15 1.9,4.17 3.15,6.1 5.35,13.04 9.11,26.71 11.24,40.64 0.91,5.58 0.95,11.27 2.01,16.83 -0.88,8.16 0.53,16.44 -0.96,24.54 -1.93,20.19 -6.18,40.31 -14.07,59.05 -8.4,20.73 -20.78,39.71 -35.48,56.5 -6.01,5.65 -11.41,11.97 -17.76,17.25 -26.62,22.79 -59.48,38.4 -94.15,43.81 -4.62,0.77 -9.24,1.54 -13.89,2.06 -3.75,0.43 -7.66,-0.55 -11.28,0.83 -5.57,0.63 -11.18,0.27 -16.72,-0.45 -13.85,-0.51 -27.54,-3.28 -40.8,-7.26 -9.05,-3.54 -18.09,-7.14 -26.87,-11.32 -9.41,-4.98 -18.41,-10.71 -26.89,-17.12 -2.31,-1.66 -4.67,-3.29 -6.48,-5.5 -0.71,-4.02 -4.01,-6.63 -6.26,-9.79 -3.84,-5.2 -7.75,-10.36 -11.17,-15.84 -2.77,-4.38 -4.63,-9.24 -7.34,-13.64 -2.26,-3.63 -4.08,-7.51 -5.52,-11.52 -0.62,-1.2 -0.09,-2.46 0.19,-3.66 5.18,8.52 10.13,17.26 16.63,24.86 4.27,4.75 7.92,10.07 12.95,14.07 3.66,4.71 8.63,8.03 12.94,12.08 26.7,21.8 60.2,35.16 94.61,37.45 9.02,0.38 18.03,-0.24 27.06,-0.15 11.63,-1.36 23.23,-3.36 34.54,-6.42 29.13,-8.67 56.24,-24.68 77.16,-46.8 3.59,-3.74 7.58,-7.11 10.7,-11.27 8.77,-10.9 16.97,-22.4 22.86,-35.14 11.13,-20.7 16.54,-44.02 18.71,-67.28 -0.12,-8.35 -0.13,-16.71 0.26,-25.06 -1.24,-10.06 -2.53,-20.18 -5.2,-30 -5.4,-22.49 -16.54,-43.23 -30.5,-61.54 -3.86,-4.47 -7.35,-9.28 -11.86,-13.12 -4.39,-3.62 -7.58,-8.46 -12.15,-11.88 -4.94,-3.73 -9.49,-7.98 -14.73,-11.29 -8.98,-6.51 -19.04,-11.29 -29,-16.05 z"
         inkscape:connector-curvature="0"
         style="fill:#050000" />
      <path
         id="path8292"
         d="m 294.88,95.92 c 19.89,-7.04 40.98,-11.05 62.09,-9.93 4.94,1.51 10.17,0.21 15.13,1.71 19.43,2.48 38.25,9.17 55.13,19.04 0.23,0.34 0.69,1.03 0.92,1.37 -7.18,-2.58 -13.59,-6.96 -20.87,-9.35 -9.67,-4.31 -20.08,-6.48 -30.4,-8.61 -4.23,-1.19 -8.69,-0.76 -12.93,-1.9 -9.95,-0.28 -19.91,0.06 -29.86,0.08 -5.9,1.29 -12.01,1.39 -17.85,3.02 -7,1.91 -14.27,2.96 -20.93,5.94 -4.87,2.14 -10.12,3.5 -14.58,6.49 -5.31,3.57 -11.57,5.41 -16.78,9.14 -2.31,1.49 -4.41,3.38 -7.05,4.26 1.24,-2.51 3.97,-3.59 6.12,-5.16 4.86,-3.41 10.51,-5.42 15.64,-8.36 4.96,-3.44 10.62,-5.62 16.22,-7.74 z"
         inkscape:connector-curvature="0"
         style="fill:#6f0400" />
      <path
         id="path8294"
         d="m 199,99.1 c -0.17,-1.56 0.53,-2.26 2.1,-2.1 -0.19,1.21 -0.89,1.91 -2.1,2.1 z"
         inkscape:connector-curvature="0"
         style="fill:#ffeae2" />
      <path
         id="path8296"
         d="m 481.13,110.8 c 0.27,0.52 0.81,1.54 1.08,2.05 l -0.8,-0.33 c -0.07,-0.43 -0.21,-1.29 -0.28,-1.72 z"
         inkscape:connector-curvature="0"
         style="fill:#020000" />
      <path
         id="path8298"
         d="m 442.85,117.75 c 2.53,0.23 4.15,2.44 5.33,4.47 -2.52,-0.28 -4.16,-2.44 -5.33,-4.47 z"
         inkscape:connector-curvature="0"
         style="fill:#620400" />
      <path
         id="path8300"
         d="m 448.83,122.76 c 2.94,0.47 4.76,3.2 6.35,5.48 -2.93,-0.53 -4.78,-3.2 -6.35,-5.48 z"
         inkscape:connector-curvature="0"
         style="fill:#620400" />
      <path
         id="path8302"
         d="m 292.37,139.37 c 14.8,-6.91 31.27,-10.33 47.59,-9.32 2.32,0.53 4.64,1.15 7.05,0.95 35.67,3.63 67.86,29.27 80.12,62.84 1.61,5.1 3.59,10.12 4.6,15.38 0.24,2.56 0.68,5.1 1.49,7.55 -0.3,8.02 -0.47,16.06 -0.24,24.09 l -0.82,0.07 c -0.31,-4.72 1.51,-10.02 -1.1,-14.29 -0.17,-3.51 -0.04,-7.08 -1.14,-10.47 -0.42,-7.99 -2.27,-16.06 -5.72,-23.3 -0.77,-2.44 -1.57,-4.89 -2.8,-7.14 -4.39,-9.16 -10.48,-17.36 -17.11,-25.02 -11.83,-11.05 -25.98,-19.98 -41.69,-24.28 -7.68,-2.12 -15.6,-3.97 -23.62,-3.39 -3.04,0.19 -5.98,-0.73 -8.98,-1 -14.41,1.62 -29.21,4.46 -41.7,12.23 -10.37,4.52 -19.28,11.85 -27.06,19.97 -12.77,13.84 -21.42,31.3 -25.38,49.66 -1.53,9.64 -2.9,19.51 -1.1,29.22 1.8,19.14 9.54,37.58 21.55,52.56 5.78,5.9 11.3,12.2 18.29,16.73 4.93,3.69 10.59,6.17 16.04,8.95 3.97,2 8.38,2.81 12.57,4.22 6.82,2.08 13.91,4.15 21.13,3.23 0.41,0.09 1.25,0.28 1.66,0.37 1.75,1.37 4,1.22 6.01,0.56 0.4,0.01 1.21,0.02 1.61,0.03 4.08,0.71 8.25,0.66 12.37,0.33 -0.59,1.98 -4.16,0.16 -5.93,0.83 -4.31,1.71 -8.96,0.71 -13.42,1.5 -3.25,-0.34 -6.46,-0.93 -9.7,-1.28 -15.65,-2.24 -30.86,-8.12 -43.67,-17.42 -4.81,-3.82 -9.74,-7.55 -14.04,-11.96 -4.57,-5.79 -9.82,-11.13 -13.29,-17.72 -4.57,-6.71 -6.95,-14.52 -10.15,-21.9 -0.5,-6.67 -3.49,-13.06 -3.18,-19.72 -1.03,-3.05 -0.58,-6.29 -0.62,-9.43 0.12,-4.41 -0.51,-8.91 0.72,-13.21 2.65,-20.24 11.73,-39.54 25.51,-54.57 7.67,-7.74 15.41,-15.74 25.14,-20.86 3.48,-0.71 6.13,-3.12 9.01,-4.99 z"
         inkscape:connector-curvature="0"
         style="fill:#c6ac2c" />
      <path
         id="path8304"
         d="m 288.3,144.27 c 12.49,-7.77 27.29,-10.61 41.7,-12.23 3,0.27 5.94,1.19 8.98,1 8.02,-0.58 15.94,1.27 23.62,3.39 15.71,4.3 29.86,13.23 41.69,24.28 6.63,7.66 12.72,15.86 17.11,25.02 -0.71,-0.18 -2.14,-0.54 -2.85,-0.72 1.45,2.9 3.58,5.37 5.65,7.86 3.45,7.24 5.3,15.31 5.72,23.3 -3.58,-12.48 -9.13,-24.61 -17.81,-34.37 -0.36,-0.26 -1.08,-0.79 -1.44,-1.06 0.59,1.53 1.35,2.99 2.36,4.29 10.73,13.71 16.65,30.94 17.69,48.24 -0.31,25.62 -12.61,50.03 -30.37,68.08 -15.59,14.03 -34.94,24.91 -56.09,27 -18.07,0.66 -36.54,-3.91 -51.66,-13.95 -2.94,-1.87 -5.43,-4.51 -8.8,-5.64 3,3.87 7.47,6.28 11.5,8.95 8.85,5.58 18.99,8.54 29.04,11.1 -7.22,0.92 -14.31,-1.15 -21.13,-3.23 -4.19,-1.41 -8.6,-2.22 -12.57,-4.22 -5.45,-2.78 -11.11,-5.26 -16.04,-8.95 -6.99,-4.53 -12.51,-10.83 -18.29,-16.73 -12.01,-14.98 -19.75,-33.42 -21.55,-52.56 -1.8,-9.71 -0.43,-19.58 1.1,-29.22 3.96,-18.36 12.61,-35.82 25.38,-49.66 7.78,-8.12 16.69,-15.45 27.06,-19.97 z"
         inkscape:connector-curvature="0"
         style="fill:#020200" />
      <path
         id="path8306"
         d="m 461.76,134.83 c 2.26,1.59 4.97,3.4 5.47,6.34 -2.28,-1.58 -4.93,-3.43 -5.47,-6.34 z"
         inkscape:connector-curvature="0"
         style="fill:#620400" />
      <path
         id="path8308"
         d="m 306.77,156.96 c 9.59,-4.1 19.71,-7.41 30.2,-7.92 2.88,-0.17 5.87,-0.62 8.66,0.31 4.08,1.66 8.58,0.06 12.74,1.42 11.47,2.07 22.66,6.07 32.43,12.49 3.29,2.63 7.53,4.18 9.98,7.76 -7.97,-5.6 -15.95,-11.52 -25.27,-14.71 -6.58,-2.19 -13.27,-4.37 -20.21,-4.9 -6.34,-1.43 -12.9,-0.54 -19.34,-0.75 -6.43,1.09 -12.95,1.93 -19.17,3.99 -13.58,4.83 -26.52,12.02 -36.8,22.24 1.37,-3.93 5.51,-5.86 8.41,-8.54 5.41,-4.89 12.19,-7.68 18.37,-11.39 z"
         inkscape:connector-curvature="0"
         style="fill:#c6ac2c" />
      <path
         id="path8310"
         d="m 504.66,149.07 c 4.44,3.44 3.69,10.07 7.6,13.94 5.25,14.9 8.91,30.53 9.85,46.33 -0.11,1.6 -0.59,3.45 0.82,4.66 0.12,4.11 0,8.23 0.14,12.34 -0.04,1.64 0.12,3.27 0.24,4.91 l 0,0.49 c -0.12,0.72 -0.36,2.17 -0.48,2.89 -1.22,2.76 -1.37,6 0.14,8.69 0.08,1.22 0.15,2.44 0.2,3.67 -1.99,0.29 -0.32,-3.38 -2.35,-2.96 -0.26,3.74 1.38,7.25 1.45,10.97 -1.98,0.24 -0.6,-3.08 -2.51,-3.11 0.12,3.11 1.1,6.08 1.54,9.14 -1.81,-0.06 -0.84,-2.9 -2.57,-3.16 0.2,2.85 1.99,5.69 0.79,8.53 -0.69,-2.37 -1.9,-4.74 -1.44,-7.27 1.31,-6.99 2.19,-14.05 2.88,-21.11 -0.34,-7.77 0.69,-15.64 -0.66,-23.32 -1.06,-5.56 -1.1,-11.25 -2.01,-16.83 -2.13,-13.93 -5.89,-27.6 -11.24,-40.64 -0.65,-2.76 -1.41,-5.5 -2.39,-8.16 z"
         inkscape:connector-curvature="0"
         style="fill:#ffbbb4" />
      <path
         id="path8312"
         d="m 383.79,156.81 c 2.5,0.11 5.29,0.95 6.43,3.4 -2.27,-0.77 -4.93,-1.38 -6.43,-3.4 z"
         inkscape:connector-curvature="0"
         style="fill:#543f00" />
      <path
         id="path8314"
         d="m 316.96,161.87 c 4.03,-0.95 8.05,0.5 12.11,0.18 11.78,1.13 23.36,5.72 32.18,13.69 3.12,3.5 6.81,6.48 9.71,10.17 2.49,3.96 5.07,7.88 6.87,12.21 0.79,3.03 2.19,5.88 2.88,8.94 0.28,2.02 0.66,4.03 1.16,6.01 -0.12,4.86 -0.28,9.71 -0.29,14.57 -0.78,2.4 -1.29,4.86 -1.82,7.32 -6.27,22.64 -25.92,40.93 -49.02,45.39 -5.05,-0.39 -10.02,0.96 -15.07,0.85 -1.29,-0.08 -2.58,-0.16 -3.87,-0.23 -1.3,-0.4 -2.61,-0.77 -3.92,-1.11 -20.03,-4.43 -36.47,-20.62 -42.79,-39.91 -0.9,-5.99 -2.84,-11.85 -2.86,-17.95 0.56,-15.46 6.68,-31.01 18.16,-41.6 4.48,-4.68 9.34,-9.42 15.69,-11.31 5.92,-4.57 13.6,-6.23 20.88,-7.22 z"
         inkscape:connector-curvature="0"
         style="fill:#ffffff" />
      <path
         id="path8316"
         d="m 481.77,161.79 c 3.28,1.75 3.29,6.13 5.79,8.66 7.43,14.46 12.26,30.25 14.74,46.33 1.05,4.03 0.33,8.27 1.62,12.26 0.18,7.3 0.14,14.62 -0.01,21.91 -0.79,2.95 -0.98,5.96 -1.01,9 -1.76,9.28 -2.93,18.77 -6.29,27.66 -3.17,10.24 -7.13,20.28 -12.38,29.64 -0.36,0.25 -1.09,0.73 -1.45,0.97 1.74,-5.42 5.23,-10.08 6.97,-15.51 5.93,-13.85 9.97,-28.5 11.55,-43.49 1.2,-3.98 0.47,-8.12 0.79,-12.17 0.95,-3.8 1.49,-7.81 0.5,-11.66 -1.39,-4.5 0.22,-9.29 -1.16,-13.79 -1.86,-16.72 -6.95,-32.96 -13.74,-48.29 -1.98,-3.83 -4.83,-7.28 -5.92,-11.52 z"
         inkscape:connector-curvature="0"
         style="fill:#620400" />
      <path
         id="path8318"
         d="m 321.5,164.52 c 5.9,0.58 11.94,0.55 17.65,2.34 2.66,1.13 5.48,1.8 8.17,2.82 8.99,3.99 16.91,10.54 22.16,18.88 0.21,0.58 0.61,1.73 0.81,2.3 -6.17,-5.17 -12.79,-9.89 -20.4,-12.74 -11.8,-3.92 -24.94,-4.53 -36.64,0.1 -6.74,3.17 -13.75,6.23 -18.95,11.73 -1.41,2.04 -3.51,3.4 -5.19,5.19 -8.2,10.35 -12.66,23.45 -12.91,36.59 1.45,6.94 1.81,14.34 5.4,20.62 2.13,4.09 4.05,8.36 7.13,11.84 2.85,3.22 6.12,6.02 9.33,8.86 -3.11,-0.27 -5.44,-2.6 -8.09,-3.99 -10.46,-6.32 -17.67,-17.01 -21.63,-28.39 -1.53,-7.18 -4.19,-14.53 -2.83,-21.92 1.2,-13.78 6.75,-27.68 17.12,-37.12 3.63,-3.87 7.7,-7.69 12.91,-9.23 1.65,-0.45 2.66,-1.94 4.11,-2.74 6.91,-2.98 14.28,-5.06 21.85,-5.14 z"
         inkscape:connector-curvature="0"
         style="fill:#030300" />
      <path
         id="path8320"
         d="m 208.65,170.68 c 0.52,-1.23 1.27,-2.34 2.56,-2.83 -4.03,9.4 -9.32,18.34 -12.05,28.29 -4.56,12.13 -6.4,25.04 -7.96,37.82 0.33,9.64 -0.03,19.29 0.2,28.93 0.96,5.92 2.04,11.82 3.14,17.72 3.22,16.97 10.46,32.88 19.1,47.74 1.37,2.67 3.64,4.85 4.52,7.77 -1.88,-0.82 -3.03,-2.56 -4.05,-4.25 -6.95,-11.32 -13.2,-23.21 -17.18,-35.93 -3.58,-8.48 -4.2,-17.8 -6.34,-26.69 -1.33,-4.38 -0.02,-9.04 -1.4,-13.42 -0.59,-5.58 -0.1,-11.24 -0.25,-16.86 0.56,-3.31 1.39,-6.59 1.11,-9.99 2.14,-14.06 5.03,-28.16 10.72,-41.26 2.06,-5.94 5.23,-11.37 7.88,-17.04 z"
         inkscape:connector-curvature="0"
         style="fill:#6e0400" />
      <path
         id="path8322"
         d="m 402.78,172.7 c 0.65,0.21 1.93,0.63 2.57,0.84 0.23,0.54 0.7,1.63 0.93,2.18 0.54,0.23 1.63,0.7 2.17,0.93 0.22,0.64 0.64,1.93 0.86,2.57 -2.76,-1.48 -5.04,-3.77 -6.53,-6.52 z"
         inkscape:connector-curvature="0"
         style="fill:#605400" />
      <path
         id="path8324"
         d="m 313.25,178.22 c 11.7,-4.63 24.84,-4.02 36.64,-0.1 7.61,2.85 14.23,7.57 20.4,12.74 2.48,1.83 3.87,5.28 3.61,8.34 -1.01,-0.95 -2.03,-1.88 -3.02,-2.84 -0.73,-1.55 -1.26,-3.31 -2.68,-4.38 -5.65,-5.08 -12.09,-9.38 -19.34,-11.79 -5.43,-2.35 -11.45,-1.7 -17.11,-2.94 -1.21,-0.28 -2.41,-0.34 -3.62,-0.17 -6.9,1.08 -14.03,2.12 -20.01,6.01 -6.02,2.49 -11.14,6.68 -15.67,11.3 -4.33,5.63 -8.77,11.48 -10.62,18.47 -5.67,15.51 -3.1,33.54 6.21,47.11 2.45,2.92 4.34,6.51 7.77,8.43 1.62,1.43 3.4,2.65 5.27,3.74 1.09,0.84 2.16,1.73 3.24,2.61 -2.26,0.68 -4.52,-0.3 -6.26,-1.7 -3.21,-2.84 -6.48,-5.64 -9.33,-8.86 -3.08,-3.48 -5,-7.75 -7.13,-11.84 -3.59,-6.28 -3.95,-13.68 -5.4,-20.62 0.25,-13.14 4.71,-26.24 12.91,-36.59 1.68,-1.79 3.78,-3.15 5.19,-5.19 5.2,-5.5 12.21,-8.56 18.95,-11.73 z"
         inkscape:connector-curvature="0"
         style="fill:#69c92f" />
      <path
         id="path8326"
         d="m 268.57,188.57 c 3.16,-4.15 6.01,-9.02 10.64,-11.64 0.29,1.75 -1.46,2.72 -2.42,3.87 -11.8,13.29 -19.79,30 -22.34,47.62 -0.73,2.96 0.01,6.08 -0.98,9.01 -1.55,5.19 0.76,10.31 0.71,15.52 0.76,5.28 2.36,10.39 3.29,15.64 4.04,9.75 8.32,19.79 15.34,27.8 0.1,0.44 0.28,1.32 0.38,1.77 -3.19,-1.53 -4.5,-5.12 -6.67,-7.69 -2.12,-2.44 -2.68,-5.76 -4.85,-8.15 -1.06,-0.99 -0.27,-3.03 -1.77,-3.64 0.03,0.92 0.09,2.76 0.12,3.69 -6.33,-9.52 -7.23,-21.34 -9.04,-32.35 0.28,-6.7 -0.74,-13.51 0.84,-20.1 2.19,-14.85 7.84,-29.23 16.75,-41.35 z"
         inkscape:connector-curvature="0"
         style="fill:#533e00" />
      <path
         id="path8328"
         d="m 308.12,183.09 c 5.98,-3.89 13.11,-4.93 20.01,-6.01 1.21,-0.17 2.41,-0.11 3.62,0.17 5.66,1.24 11.68,0.59 17.11,2.94 7.25,2.41 13.69,6.71 19.34,11.79 -4.36,-1.43 -7.9,-4.58 -12.3,-5.92 -4.5,-1.99 -9.48,-1.86 -14.21,-2.83 -6.45,-1.6 -12.88,0.88 -19.08,2.42 -7.71,2.92 -15.43,6.7 -20.88,13.07 -10.82,9.63 -16.21,24.13 -16.96,38.35 0.27,3.5 1.42,6.86 1.84,10.34 0.95,7.75 5.26,14.46 9.2,20.99 -3.43,-1.92 -5.32,-5.51 -7.77,-8.43 -9.31,-13.57 -11.88,-31.6 -6.21,-47.11 1.85,-6.99 6.29,-12.84 10.62,-18.47 4.53,-4.62 9.65,-8.81 15.67,-11.3 z"
         inkscape:connector-curvature="0"
         style="fill:#040400" />
      <path
         id="path8330"
         d="m 410.67,180.74 c 0.36,0.27 1.08,0.8 1.44,1.06 8.68,9.76 14.23,21.89 17.81,34.37 1.1,3.39 0.97,6.96 1.14,10.47 -0.16,2.2 -0.31,4.41 -0.34,6.63 -1.04,-17.3 -6.96,-34.53 -17.69,-48.24 -1.01,-1.3 -1.77,-2.76 -2.36,-4.29 z"
         inkscape:connector-curvature="0"
         style="fill:#685a00" />
      <path
         id="path8332"
         d="m 322.61,185.65 c 6.2,-1.54 12.63,-4.02 19.08,-2.42 4.73,0.97 9.71,0.84 14.21,2.83 4.4,1.34 7.94,4.49 12.3,5.92 1.42,1.07 1.95,2.83 2.68,4.38 -12.41,-8.92 -28.48,-14.06 -43.65,-10.25 -6.82,1.24 -12.64,5.18 -18.58,8.48 -4.04,2.91 -7.32,6.75 -10.8,10.27 -7.48,10.73 -12.63,24.05 -10.52,37.29 1.27,11.17 7,21.23 13.75,29.99 -1.87,-1.09 -3.65,-2.31 -5.27,-3.74 -3.94,-6.53 -8.25,-13.24 -9.2,-20.99 -0.42,-3.48 -1.57,-6.84 -1.84,-10.34 0.75,-14.22 6.14,-28.72 16.96,-38.35 5.45,-6.37 13.17,-10.15 20.88,-13.07 z"
         inkscape:connector-curvature="0"
         style="fill:#40a400" />
      <path
         id="path8334"
         d="m 327.23,186.11 c 15.17,-3.81 31.24,1.33 43.65,10.25 0.99,0.96 2.01,1.89 3.02,2.84 1.39,1.25 1.98,3.09 2.07,4.92 -8.55,-8.9 -20.37,-15.31 -32.91,-15.37 -8.8,-0.85 -17.79,1.53 -25.35,6.03 -3.19,1.73 -6.98,2.98 -8.75,6.44 9.2,-6.14 19.81,-10.87 31.02,-11.18 12.52,0.83 26.03,4.6 34.08,14.88 -5.7,-1.63 -11.16,-4.29 -17.13,-4.83 -2.51,-0.28 -4.66,1.32 -7.03,1.8 -5.55,1.11 -11.35,1.24 -16.63,3.43 -5.47,2.53 -11.07,5.23 -15.04,9.92 -8.1,7.35 -12.06,18.21 -12.86,28.93 0.01,2.86 -1.04,5.47 -2.23,8.01 0.14,9.04 4.79,17.03 9.12,24.67 -2.77,0.16 -5.62,-0.59 -7.94,-2.1 -1.08,-0.88 -2.15,-1.77 -3.24,-2.61 -6.75,-8.76 -12.48,-18.82 -13.75,-29.99 -2.11,-13.24 3.04,-26.56 10.52,-37.29 3.48,-3.52 6.76,-7.36 10.8,-10.27 5.94,-3.3 11.76,-7.24 18.58,-8.48 z"
         inkscape:connector-curvature="0"
         style="fill:#060e00" />
      <path
         id="path8336"
         d="m 418.55,185.01 c 0.71,0.18 2.14,0.54 2.85,0.72 1.23,2.25 2.03,4.7 2.8,7.14 -2.07,-2.49 -4.2,-4.96 -5.65,-7.86 z"
         inkscape:connector-curvature="0"
         style="fill:#3c2d00" />
      <path
         id="path8338"
         d="m 370.96,185.91 c 5.99,1.48 11.11,5.47 15.94,9.18 3.09,3.3 6.8,6.16 9.35,9.9 l -0.24,0.8 c -1.85,0.28 -2.77,-2.34 -4.25,-3.25 -0.89,0.38 -1.75,0.81 -2.61,1.24 -1.3,-0.93 -2.52,-1.99 -3.77,-2.98 0.16,0.63 0.47,1.91 0.63,2.55 -3.19,-0.83 -5.43,-3.55 -8.18,-5.23 -1.8,-4.33 -4.38,-8.25 -6.87,-12.21 z"
         inkscape:connector-curvature="0"
         style="fill:#080e00" />
      <path
         id="path8340"
         d="m 317.71,194.78 c 7.56,-4.5 16.55,-6.88 25.35,-6.03 12.54,0.06 24.36,6.47 32.91,15.37 0.86,0.82 1.23,1.84 1.12,3.07 -1.01,-0.77 -2.01,-1.53 -3.03,-2.27 -8.05,-10.28 -21.56,-14.05 -34.08,-14.88 -11.21,0.31 -21.82,5.04 -31.02,11.18 1.77,-3.46 5.56,-4.71 8.75,-6.44 z"
         inkscape:connector-curvature="0"
         style="fill:#399300" />
      <path
         id="path8342"
         d="m 349.9,201.89 c 2.37,-0.48 4.52,-2.08 7.03,-1.8 5.97,0.54 11.43,3.2 17.13,4.83 1.02,0.74 2.02,1.5 3.03,2.27 0.12,1.37 0.32,2.74 0.62,4.09 0.38,5.49 0.51,11.03 0.09,16.52 -1.64,7.69 -4.4,15.15 -8.18,22.05 -5.42,9.58 -14.15,17.06 -23.94,21.96 -6.29,2.47 -12.52,5.63 -19.43,5.71 -4.61,1.5 -9.46,0.71 -13.99,-0.67 -4.33,-7.64 -8.98,-15.63 -9.12,-24.67 1.19,-2.54 2.24,-5.15 2.23,-8.01 0.8,-10.72 4.76,-21.58 12.86,-28.93 3.97,-4.69 9.57,-7.39 15.04,-9.92 5.28,-2.19 11.08,-2.32 16.63,-3.43 z"
         inkscape:connector-curvature="0"
         style="fill:#000100" />
      <path
         id="path8344"
         d="m 390.9,204.81 c 2.49,0.17 3.91,2.87 5.9,4.19 0.06,-0.51 0.17,-1.52 0.23,-2.03 l 0.79,0.05 c 5.51,7.73 9.58,16.65 11.13,26.06 2.78,13.24 0.17,27.17 -5.63,39.25 -6.47,11.95 -16.51,22.13 -28.63,28.34 -17.35,8.4 -38.84,8.96 -55.94,-0.33 -1.33,-1.41 -4.3,-1.49 -4.75,-3.35 0.48,-0.05 1.45,-0.15 1.93,-0.21 -0.85,-1.16 -1.88,-2.25 -2.25,-3.68 1.01,0.27 2.03,0.56 3.04,0.85 -0.19,-0.57 -0.57,-1.71 -0.76,-2.28 3.52,0.9 6.43,3.2 9.78,4.53 19.96,8.63 44.61,3.9 60.17,-11.29 9.63,-9.13 15.65,-21.74 17.18,-34.88 -0.03,-6.56 0.62,-13.29 -1.46,-19.63 -1.23,-6.08 -4.12,-11.6 -7.33,-16.84 -0.13,-0.43 -0.38,-1.29 -0.5,-1.72 1.13,0.56 2.21,1.23 3.29,1.9 -1.32,-3.49 -4.58,-5.67 -6.19,-8.93 z"
         inkscape:connector-curvature="0"
         style="fill:#112100" />
      <path
         id="path8346"
         d="m 301.34,208.35 c 0.44,-0.35 1.32,-1.05 1.77,-1.4 -0.72,2.16 -2.21,3.9 -3.4,5.79 -3.58,6.17 -6.52,13.02 -6.54,20.26 -0.06,1.75 -0.68,3.41 -0.94,5.14 0.45,9.06 3.18,18 7.67,25.88 2.85,3.3 5.43,6.81 8.19,10.19 -3.36,-0.24 -4.29,-3.97 -6.39,-5.97 -6.35,-6.19 -8.58,-15.09 -10.82,-23.35 -1.29,-12.97 2.68,-26.14 10.46,-36.54 z"
         inkscape:connector-curvature="0"
         style="fill:#359400" />
      <path
         id="path8348"
         d="m 380.71,207.06 c 1.63,-0.53 2.13,1.53 2.81,2.53 3.14,6.33 5.46,13.23 5.66,20.34 0.3,2.17 1.67,4.42 0.33,6.52 -1.59,3.6 0.31,8.52 -2.26,11.57 -0.23,-0.6 -0.69,-1.82 -0.92,-2.43 -0.33,-4.01 0.92,-7.99 0.22,-11.98 -0.71,-3.98 -0.39,-8.23 -2.38,-11.89 -0.04,-1.14 -0.04,-2.28 0,-3.41 1.63,-1.44 0.54,-3.45 -1.13,-4.2 -0.3,-0.26 -0.88,-0.78 -1.17,-1.04 -0.5,-1.98 -0.88,-3.99 -1.16,-6.01 z"
         inkscape:connector-curvature="0"
         style="fill:#349000" />
      <path
         id="path8350"
         d="m 386.92,208.79 c 5.34,4.73 8.72,11.36 11.28,17.94 2.8,7.44 2.67,15.45 2.5,23.27 -1.55,14.95 -9.9,28.84 -22.02,37.66 -20.73,16.19 -54.62,13.67 -70.8,-7.8 1.31,0.34 2.62,0.71 3.92,1.11 2.15,1.59 4.57,2.73 7.11,3.57 -1.04,1.28 0.87,2.18 1.85,2.5 2.19,0.65 4.13,1.86 6.06,3.07 12.24,4.39 26.1,5.83 38.48,1.11 6.13,-2.81 12.5,-5.69 17.09,-10.81 8.18,-7.61 13.05,-18.41 14.47,-29.4 1.2,-8.99 -1.27,-17.83 -3.5,-26.45 -0.12,-1.42 -1.35,-2.08 -2.41,-2.74 -0.69,-1.68 -0.21,-3.76 -1.52,-5.19 -1.64,-2.3 -4.68,-4.84 -2.51,-7.84 z"
         inkscape:connector-curvature="0"
         style="fill:#143300" />
      <path
         id="path8352"
         d="m 431.73,209.22 c 1.43,0.27 1.23,2.13 1.72,3.18 1.57,6.45 3.94,12.9 3.52,19.63 -0.14,2.39 0.86,4.62 1.08,6.97 0.13,2.38 -1,4.6 -1.07,6.97 -0.05,2.82 0.33,5.69 -0.46,8.46 -2.13,11.12 -5.5,22.11 -11.26,31.92 -1.32,2.05 -2.17,4.66 -4.46,5.85 0.29,-2.15 1.65,-3.83 2.85,-5.55 5.45,-10.19 9.87,-21.12 11.29,-32.67 1.78,-7.54 0.7,-15.33 1,-23 -0.92,-4.73 -1.13,-9.63 -2.72,-14.21 -0.81,-2.45 -1.25,-4.99 -1.49,-7.55 z"
         inkscape:connector-curvature="0"
         style="fill:#554100" />
      <path
         id="path8354"
         d="m 377.71,211.28 1.08,-0.27 c 0.38,3.98 0.07,7.99 0.2,11.99 0.52,7.34 -2.64,14.23 -5.02,21 -1.27,1.98 -1.63,5.42 -4.35,5.85 3.78,-6.9 6.54,-14.36 8.18,-22.05 0.42,-5.49 0.29,-11.03 -0.09,-16.52 z"
         inkscape:connector-curvature="0"
         style="fill:#aff886" />
      <path
         id="path8356"
         d="m 381.87,213.07 c 0.29,0.26 0.87,0.78 1.17,1.04 -0.22,1.5 0.19,2.99 1.13,4.2 -0.04,1.13 -0.04,2.27 0,3.41 0.75,4.77 0.05,9.51 -0.25,14.28 -4.31,25.95 -28.54,47.79 -55.24,47.22 -4.4,-0.22 -8.95,-0.03 -13.01,-2.02 5.05,0.11 10.02,-1.24 15.07,-0.85 1.32,0.48 2.72,0.83 4.13,0.5 11.68,-1.39 22.53,-7.03 31.33,-14.68 8.16,-8.58 13.7,-19.57 15.76,-31.23 0.29,-2.44 -0.12,-4.88 -0.38,-7.3 0.01,-4.86 0.17,-9.71 0.29,-14.57 z"
         inkscape:connector-curvature="0"
         style="fill:#68ce2f" />
      <path
         id="path8358"
         d="m 383.04,214.11 c 1.67,0.75 2.76,2.76 1.13,4.2 -0.94,-1.21 -1.35,-2.7 -1.13,-4.2 z"
         inkscape:connector-curvature="0"
         style="fill:#0a1d00" />
      <path
         id="path8360"
         d="m 522.93,214 c 0.23,0.32 0.68,0.96 0.91,1.28 0.27,3.66 0.8,7.61 -0.77,11.06 -0.14,-4.11 -0.02,-8.23 -0.14,-12.34 z"
         inkscape:connector-curvature="0"
         style="fill:#060000" />
      <path
         id="path8362"
         d="m 520.3,214.7 c 1.35,7.68 0.32,15.55 0.66,23.32 -0.69,7.06 -1.57,14.12 -2.88,21.11 -0.46,2.53 0.75,4.9 1.44,7.27 -0.13,0.49 -0.38,1.46 -0.51,1.95 -0.77,-1.35 -0.57,-3.7 -2.19,-4.29 0.13,2.69 0.62,5.35 1.39,7.93 -0.9,-0.69 -1.79,-1.38 -2.66,-2.09 0.51,2.08 1.12,4.14 1.72,6.21 -0.81,-0.79 -1.65,-1.53 -2.51,-2.23 0.37,1.66 0.83,3.3 1.26,4.95 -0.5,-0.17 -1.52,-0.5 -2.02,-0.67 1.41,2.69 -1.03,4.72 -0.27,7.48 -2.53,2.88 -3.1,6.79 -4.21,10.35 0.05,2.8 -2.98,4.29 -3.02,7.04 -0.55,3.53 -2.88,6.42 -4.68,9.41 -0.05,0.09 -0.17,0.29 -0.22,0.39 -0.19,0.39 -0.55,1.15 -0.74,1.54 -0.04,0.1 -0.13,0.31 -0.17,0.41 -0.83,3.28 -2.81,6.04 -4.85,8.67 -0.06,0.09 -0.18,0.29 -0.24,0.38 -0.19,0.38 -0.58,1.14 -0.77,1.51 -0.05,0.11 -0.15,0.32 -0.2,0.43 -0.48,0.94 -1.03,1.84 -1.66,2.69 -0.07,0.1 -0.2,0.29 -0.27,0.39 -0.63,0.84 -1.23,1.7 -1.83,2.57 -0.05,0.09 -0.15,0.26 -0.21,0.35 -0.16,0.31 -0.48,0.93 -0.64,1.24 -1.51,-0.56 -2.95,1.39 -1.2,2.21 -0.2,0.21 -0.61,0.62 -0.82,0.83 -1.58,-0.65 -2.89,1.45 -1.12,2.22 -0.55,0.64 -1.1,1.28 -1.63,1.94 -1.45,-0.55 -2.96,1.26 -1.32,2.17 -0.24,0.19 -0.73,0.56 -0.98,0.74 -1.9,0.37 -4.33,2.06 -3.03,4.22 -0.22,0.16 -0.66,0.48 -0.88,0.64 -4.67,3.32 -7.78,8.26 -11.65,12.38 -2.14,1.89 -4.38,3.67 -6.08,5.99 -1.86,2.47 -5.11,3.65 -6.29,6.65 -0.16,0.19 -0.47,0.57 -0.63,0.76 -2.6,-0.55 -4.03,2.58 -5.38,4.28 -0.16,0.23 -0.47,0.69 -0.62,0.92 -1.71,-1.59 -3.15,0.6 -3.19,2.26 -0.6,0.61 -1.2,1.22 -1.79,1.84 -0.85,-1.77 -2.83,-0.25 -2.14,1.26 -0.85,0.42 -1.68,0.87 -2.48,1.35 -0.08,0.06 -0.24,0.19 -0.32,0.26 -2.18,2.83 -5.14,4.88 -8.6,5.8 -0.09,0.05 -0.27,0.15 -0.36,0.21 -1.39,1.2 -2.9,2.24 -4.64,2.83 -0.1,0.05 -0.28,0.15 -0.37,0.2 -5.86,4.91 -13.69,6.56 -19.76,11.16 -1.88,0.6 -3.78,0.38 -5.58,-0.34 0.12,0.53 0.36,1.58 0.47,2.1 -1.63,1.61 -3.76,0.28 -5.58,-0.15 0.19,0.54 0.56,1.63 0.74,2.17 -4.02,1.22 -7.98,2.62 -11.93,4.03 -3.39,-1.65 -6.93,-0.85 -10.23,0.59 -13.15,2.49 -26.46,5.23 -39.92,4.21 3.62,-1.38 7.53,-0.4 11.28,-0.83 4.65,-0.52 9.27,-1.29 13.89,-2.06 34.67,-5.41 67.53,-21.02 94.15,-43.81 6.35,-5.28 11.75,-11.6 17.76,-17.25 14.7,-16.79 27.08,-35.77 35.48,-56.5 7.89,-18.74 12.14,-38.86 14.07,-59.05 1.49,-8.1 0.08,-16.38 0.96,-24.54 z"
         inkscape:connector-curvature="0"
         style="fill:#f47571" />
      <path
         id="path8364"
         d="m 416.85,219.87 c 1.32,0.68 1.33,2.3 1.67,3.55 1.41,5.77 1.57,11.72 2.39,17.58 -1.14,6.86 -0.31,14.18 -3.33,20.62 l -0.68,0.57 c 0.15,-4.47 2.08,-8.68 2.06,-13.16 -0.02,-5.03 -0.13,-10.06 0.06,-15.09 0.28,-4.81 -1.89,-9.31 -2.17,-14.07 z"
         inkscape:connector-curvature="0"
         style="fill:#3d4800" />
      <path
         id="path8366"
         d="m 531.01,220.89 0.84,0.31 c -0.32,5 1.49,9.8 1.15,14.8 -0.1,8.61 0.24,17.24 -0.12,25.84 l -0.89,0.3 c -0.08,-9.72 0.05,-19.44 0.02,-29.16 -0.72,-3.99 -1.42,-8.01 -1,-12.09 z"
         inkscape:connector-curvature="0"
         style="fill:#340000" />
      <path
         id="path8368"
         d="m 384.17,221.72 c 1.99,3.66 1.67,7.91 2.38,11.89 0.7,3.99 -0.55,7.97 -0.22,11.98 -1.53,4 -2.79,8.11 -4.58,12.01 -5.57,11.07 -15.38,20.01 -27.09,24.17 -2.41,0.82 -4.82,1.63 -7.21,2.51 -6.24,-0.61 -12.68,0.66 -18.77,-1.06 26.7,0.57 50.93,-21.27 55.24,-47.22 0.3,-4.77 1,-9.51 0.25,-14.28 z"
         inkscape:connector-curvature="0"
         style="fill:#000000" />
      <path
         id="path8370"
         d="m 431.06,226.64 c 2.61,4.27 0.79,9.57 1.1,14.29 -0.49,6.06 -1.11,12.34 -3.2,18.07 -3.93,8.25 -7.76,16.57 -12.23,24.57 -6.09,8.5 -12.71,16.72 -20.83,23.39 -1.59,1.1 -2.96,2.48 -4.23,3.92 -3.6,1.85 -6.8,4.34 -10.21,6.49 -5.38,3.11 -10.99,5.78 -16.59,8.45 -6.07,2.17 -12.42,3.86 -18.88,4.28 -4.12,0.33 -8.29,0.38 -12.37,-0.33 3.3,-1.76 7.12,-0.53 10.64,-1.42 21.15,-2.09 40.5,-12.97 56.09,-27 17.76,-18.05 30.06,-42.46 30.37,-68.08 0.03,-2.22 0.18,-4.43 0.34,-6.63 z"
         inkscape:connector-curvature="0"
         style="fill:#ffff2c" />
      <path
         id="path8372"
         d="m 379.76,234.96 c 0.53,-2.46 1.04,-4.92 1.82,-7.32 0.26,2.42 0.67,4.86 0.38,7.3 -2.06,11.66 -7.6,22.65 -15.76,31.23 -8.8,7.65 -19.65,13.29 -31.33,14.68 -1.41,0.33 -2.81,-0.02 -4.13,-0.5 23.1,-4.46 42.75,-22.75 49.02,-45.39 z"
         inkscape:connector-curvature="0"
         style="fill:#000000" />
      <path
         id="path8374"
         d="m 523.31,231.25 c 0,0.12 0,0.37 0,0.49 l 0,-0.49 z"
         inkscape:connector-curvature="0"
         style="fill:#180000" />
      <path
         id="path8376"
         d="m 522.97,243.32 c -1.51,-2.69 -1.36,-5.93 -0.14,-8.69 0.19,2.89 0.25,5.79 0.14,8.69 z"
         inkscape:connector-curvature="0"
         style="fill:#d24643" />
      <path
         id="path8378"
         d="m 387.32,239.41 c 1.42,0.29 1.32,3.94 0.01,4.29 -0.76,-1.24 -0.86,-3.08 -0.01,-4.29 z"
         inkscape:connector-curvature="0"
         style="fill:#63ff00" />
      <path
         id="path8380"
         d="m 386.33,245.59 c 0.23,0.61 0.69,1.83 0.92,2.43 -4.49,17.68 -19.08,31.77 -36.23,37.3 -1.2,-0.34 -2.39,-0.69 -3.57,-1.04 2.39,-0.88 4.8,-1.69 7.21,-2.51 11.71,-4.16 21.52,-13.1 27.09,-24.17 1.79,-3.9 3.05,-8.01 4.58,-12.01 z"
         inkscape:connector-curvature="0"
         style="fill:#45bb00" />
      <path
         id="path8382"
         d="m 416.73,283.57 c 4.47,-8 8.3,-16.32 12.23,-24.57 -0.05,1.73 -0.26,3.47 -0.82,5.13 -2.41,7.43 -5.4,14.72 -9.57,21.36 -0.77,0.96 -1.3,2.37 -2.62,2.69 0.21,-1.55 0.46,-3.09 0.78,-4.61 z"
         inkscape:connector-curvature="0"
         style="fill:#514700" />
      <path
         id="path8384"
         d="m 516.82,264.06 c 1.62,0.59 1.42,2.94 2.19,4.29 0.03,1.23 0.04,2.46 0.05,3.69 l -0.85,-0.05 c -0.77,-2.58 -1.26,-5.24 -1.39,-7.93 z"
         inkscape:connector-curvature="0"
         style="fill:#ffc2bc" />
      <path
         id="path8386"
         d="m 514.76,273.88 c 0.86,0.7 1.7,1.44 2.51,2.23 0,1.47 -0.34,2.91 -0.73,4.32 -3.32,10.58 -6.93,21.12 -12.08,30.97 -1.35,2.5 -2.6,5.07 -3.46,7.79 -5.35,12.09 -13.84,22.53 -21.94,32.9 -1.73,2.25 -4.09,3.92 -5.69,6.28 -3.01,4.6 -7.83,7.51 -11.17,11.83 -4.2,2.73 -7.29,6.74 -11.38,9.6 -7.74,6.4 -16.02,12.11 -24.53,17.45 -1.29,0.75 -2.69,1.25 -4.09,1.73 -6.17,1.56 -11,6.64 -17.46,7.15 6.07,-4.6 13.9,-6.25 19.76,-11.16 l 0.37,-0.2 c 1.74,-0.59 3.25,-1.63 4.64,-2.83 l 0.36,-0.21 c 3.46,-0.92 6.42,-2.97 8.6,-5.8 l 0.32,-0.26 c 0.8,-0.48 1.63,-0.93 2.48,-1.35 0.54,-0.31 1.61,-0.95 2.14,-1.26 0.59,-0.62 1.19,-1.23 1.79,-1.84 1.36,-0.23 2.61,-0.95 3.19,-2.26 0.15,-0.23 0.46,-0.69 0.62,-0.92 2.03,-1.1 4.06,-2.31 5.38,-4.28 0.16,-0.19 0.47,-0.57 0.63,-0.76 2.78,-1.83 5.54,-3.77 7.67,-6.35 2.43,-2.89 5.62,-5.05 7.84,-8.12 2.6,-3.72 6.55,-6.36 8.51,-10.55 0.22,-0.16 0.66,-0.48 0.88,-0.64 1.73,-0.77 2.61,-2.46 3.03,-4.22 0.25,-0.18 0.74,-0.55 0.98,-0.74 0.33,-0.54 0.99,-1.63 1.32,-2.17 0.53,-0.66 1.08,-1.3 1.63,-1.94 0.28,-0.56 0.84,-1.66 1.12,-2.22 0.21,-0.21 0.62,-0.62 0.82,-0.83 0.3,-0.55 0.9,-1.66 1.2,-2.21 0.16,-0.31 0.48,-0.93 0.64,-1.24 l 0.21,-0.35 c 0.6,-0.87 1.2,-1.73 1.83,-2.57 l 0.27,-0.39 c 0.63,-0.85 1.18,-1.75 1.66,-2.69 l 0.2,-0.43 c 0.19,-0.37 0.58,-1.13 0.77,-1.51 l 0.24,-0.38 c 2.04,-2.63 4.02,-5.39 4.85,-8.67 l 0.17,-0.41 c 0.19,-0.39 0.55,-1.15 0.74,-1.54 l 0.22,-0.39 c 1.8,-2.99 4.13,-5.88 4.68,-9.41 0.04,-2.75 3.07,-4.24 3.02,-7.04 1.11,-3.56 1.68,-7.47 4.21,-10.35 -0.76,-2.76 1.68,-4.79 0.27,-7.48 0.5,0.17 1.52,0.5 2.02,0.67 -0.43,-1.65 -0.89,-3.29 -1.26,-4.95 z"
         inkscape:connector-curvature="0"
         style="fill:#ffbbb4" />
      <path
         id="path8388"
         d="m 311.8,280.97 c 1.29,0.07 2.58,0.15 3.87,0.23 4.06,1.99 8.61,1.8 13.01,2.02 6.09,1.72 12.53,0.45 18.77,1.06 1.18,0.35 2.37,0.7 3.57,1.04 l -0.34,0.54 c -5.18,1 -10.42,2.07 -15.7,2.2 -5.41,-1.09 -10.99,-1.07 -16.07,-3.52 -2.54,-0.84 -4.96,-1.98 -7.11,-3.57 z"
         inkscape:connector-curvature="0"
         style="fill:#359400" />
      <path
         id="path8390"
         d="m 414.48,289.23 c 0.39,-0.12 1.18,-0.35 1.57,-0.46 -3.29,6.39 -8.71,11.43 -13.69,16.54 -0.93,1.06 -2.08,1.89 -3.55,1.94 2.84,-4.5 7.55,-7.43 10.77,-11.61 1.27,-2.43 3.66,-3.97 4.9,-6.41 z"
         inkscape:connector-curvature="0"
         style="fill:#675900" />
      <path
         id="path8392"
         d="m 273.96,299.23 c 3.12,2.73 6.09,5.66 8.8,8.81 -3.43,-2.32 -6.51,-5.36 -8.8,-8.81 z"
         inkscape:connector-curvature="0"
         style="fill:#ffff2c" />
      <path
         id="path8394"
         d="m 404.86,310.21 c 2.27,-3.22 5.16,-6.05 8.35,-8.35 -0.22,2.16 -2.07,3.45 -3.42,4.93 -1.48,1.36 -2.77,3.22 -4.93,3.42 z"
         inkscape:connector-curvature="0"
         style="fill:#574200" />
      <path
         id="path8396"
         d="m 307.82,307.78 c 4.69,1.63 9.03,4.19 13.83,5.59 8.55,2.43 17.41,4.22 26.35,3.57 5.06,-0.79 10.14,-1.68 15.25,-2.16 l -0.34,0.93 c -14.86,3.97 -30.82,2.84 -45.18,-2.44 -3.27,-1.84 -7.95,-1.89 -9.91,-5.49 z"
         inkscape:connector-curvature="0"
         style="fill:#394300" />
      <path
         id="path8398"
         d="m 391.67,310.88 c 2.71,0.19 3.75,-3.14 6.41,-3.02 -0.78,2.46 -3.21,3.71 -5.23,5.01 -8.63,5.53 -17.71,11.38 -27.98,12.95 5.6,-2.67 11.21,-5.34 16.59,-8.45 3.41,-2.15 6.61,-4.64 10.21,-6.49 z"
         inkscape:connector-curvature="0"
         style="fill:#533e00" />
      <path
         id="path8400"
         d="m 283.8,308.76 c 3.37,1.13 5.86,3.77 8.8,5.64 15.12,10.04 33.59,14.61 51.66,13.95 -3.52,0.89 -7.34,-0.34 -10.64,1.42 -0.4,-0.01 -1.21,-0.02 -1.61,-0.03 -1.76,-1.36 -4.01,-1.2 -6.01,-0.56 -0.41,-0.09 -1.25,-0.28 -1.66,-0.37 -10.05,-2.56 -20.19,-5.52 -29.04,-11.1 -4.03,-2.67 -8.5,-5.08 -11.5,-8.95 z"
         inkscape:connector-curvature="0"
         style="fill:#6b5d00" />
      <path
         id="path8402"
         d="m 501.6,312.83 c 0.05,-0.1 0.17,-0.3 0.22,-0.39 l -0.22,0.39 z"
         inkscape:connector-curvature="0"
         style="fill:#000000" />
      <path
         id="path8404"
         d="m 500.69,314.78 c 0.04,-0.1 0.13,-0.31 0.17,-0.41 l -0.17,0.41 z"
         inkscape:connector-curvature="0"
         style="fill:#000000" />
      <path
         id="path8406"
         d="m 390.5,320.14 c 1.45,-0.72 1.57,1.18 0.38,1.57 -1.03,0.57 -2.3,1.58 -3.52,1.08 -0.16,-1.54 1.99,-2.16 3.14,-2.65 z"
         inkscape:connector-curvature="0"
         style="fill:#554000" />
      <path
         id="path8408"
         d="m 476.02,328.01 c 1.29,-1.81 2.13,-4.11 4.18,-5.24 -0.44,2.89 -2.53,5.03 -4,7.43 -1.24,1.85 -2.28,4.05 -4.45,4.98 0.75,-2.74 2.84,-4.78 4.27,-7.17 z"
         inkscape:connector-curvature="0"
         style="fill:#620400" />
      <path
         id="path8410"
         d="m 495.6,323.83 c 0.06,-0.09 0.18,-0.29 0.24,-0.38 l -0.24,0.38 z"
         inkscape:connector-curvature="0"
         style="fill:#000000" />
      <path
         id="path8412"
         d="m 494.63,325.77 c 0.05,-0.11 0.15,-0.32 0.2,-0.43 l -0.2,0.43 z"
         inkscape:connector-curvature="0"
         style="fill:#000000" />
      <path
         id="path8414"
         d="m 374.15,328.1 c 2.38,-0.75 4.48,-2.44 7.1,-2.34 -1.87,2.66 -5.55,2.99 -8.37,4.17 -12.97,4.84 -26.97,5.75 -40.66,4.78 -5.11,-1.06 -10.43,-1.64 -15.28,-3.56 3.24,0.35 6.45,0.94 9.7,1.28 3.41,0.91 6.99,0.51 10.41,1.48 12.58,0.56 25.23,-1.57 37.1,-5.81 z"
         inkscape:connector-curvature="0"
         style="fill:#574200" />
      <path
         id="path8416"
         d="m 492.7,328.85 c 0.07,-0.1 0.2,-0.29 0.27,-0.39 l -0.27,0.39 z"
         inkscape:connector-curvature="0"
         style="fill:#000000" />
      <path
         id="path8418"
         d="m 326,329.18 c 2,-0.64 4.25,-0.8 6.01,0.56 -2.01,0.66 -4.26,0.81 -6.01,-0.56 z"
         inkscape:connector-curvature="0"
         style="fill:#040300" />
      <path
         id="path8420"
         d="m 490.66,331.77 c 0.06,-0.09 0.16,-0.26 0.21,-0.35 l -0.21,0.35 z"
         inkscape:connector-curvature="0"
         style="fill:#000000" />
      <path
         id="path8422"
         d="m 488.82,335.22 c -1.75,-0.82 -0.31,-2.77 1.2,-2.21 -0.3,0.55 -0.9,1.66 -1.2,2.21 z"
         inkscape:connector-curvature="0"
         style="fill:#050000" />
      <path
         id="path8424"
         d="m 486.88,338.27 c -1.77,-0.77 -0.46,-2.87 1.12,-2.22 -0.28,0.56 -0.84,1.66 -1.12,2.22 z"
         inkscape:connector-curvature="0"
         style="fill:#050000" />
      <path
         id="path8426"
         d="m 464.76,344.17 c 0.31,-2.51 2.45,-4.14 4.48,-5.33 -0.33,2.5 -2.47,4.12 -4.48,5.33 z"
         inkscape:connector-curvature="0"
         style="fill:#620400" />
      <path
         id="path8428"
         d="m 483.93,342.38 c -1.64,-0.91 -0.13,-2.72 1.32,-2.17 -0.33,0.54 -0.99,1.63 -1.32,2.17 z"
         inkscape:connector-curvature="0"
         style="fill:#050000" />
      <path
         id="path8430"
         d="m 479.92,347.34 c -1.3,-2.16 1.13,-3.85 3.03,-4.22 -0.42,1.76 -1.3,3.45 -3.03,4.22 z"
         inkscape:connector-curvature="0"
         style="fill:#050000" />
      <path
         id="path8432"
         d="m 223.74,343.84 c 2.03,1.18 4.2,2.81 4.47,5.34 -2.04,-1.16 -4.27,-2.79 -4.47,-5.34 z"
         inkscape:connector-curvature="0"
         style="fill:#620400" />
      <path
         id="path8434"
         d="m 455.27,353.29 c 2.66,-2.49 4.83,-5.58 7.98,-7.49 -0.16,2.2 -2.07,3.51 -3.47,4.97 -3.13,2.87 -6.01,5.98 -8.99,9 -0.81,0.85 -1.81,1.35 -3,1.47 1.92,-3.14 5.01,-5.27 7.48,-7.95 z"
         inkscape:connector-curvature="0"
         style="fill:#5f0400" />
      <path
         id="path8436"
         d="m 467.39,360.36 c 3.87,-4.12 6.98,-9.06 11.65,-12.38 -1.96,4.19 -5.91,6.83 -8.51,10.55 -2.22,3.07 -5.41,5.23 -7.84,8.12 -2.13,2.58 -4.89,4.52 -7.67,6.35 1.18,-3 4.43,-4.18 6.29,-6.65 1.7,-2.32 3.94,-4.1 6.08,-5.99 z"
         inkscape:connector-curvature="0"
         style="fill:#050000" />
      <path
         id="path8438"
         d="m 241.83,362.77 c 2.51,0.3 4.13,2.45 5.33,4.47 -2.51,-0.32 -4.14,-2.45 -5.33,-4.47 z"
         inkscape:connector-curvature="0"
         style="fill:#620400" />
      <path
         id="path8440"
         d="m 426.39,376.38 c 2.78,-1.25 4.74,-3.9 7.78,-4.63 -0.58,1.18 -1.43,2.21 -2.57,2.89 -12.42,7.95 -25.83,14.33 -39.72,19.26 -12.05,3.45 -24.39,6.17 -36.87,7.15 -8.98,-0.15 -17.98,0.09 -26.96,-0.13 -7.05,-1.52 -14.35,-1.55 -21.25,-3.73 -15.06,-3.37 -29.25,-9.77 -42.6,-17.39 -3.1,-2.35 -7.46,-3.43 -9.37,-7.05 3.26,0.86 5.39,3.73 8.46,5 20.19,11.99 42.97,20.15 66.5,21.48 3.96,1.22 8.13,0.72 12.21,0.77 5.02,-0.11 10.14,0.53 15.04,-0.91 9.3,0 18.39,-2.46 27.37,-4.66 14.87,-3.68 28.77,-10.41 41.98,-18.05 z"
         inkscape:connector-curvature="0"
         style="fill:#620400" />
      <path
         id="path8442"
         d="m 449.01,378.04 c 1.35,-1.7 2.78,-4.83 5.38,-4.28 -1.32,1.97 -3.35,3.18 -5.38,4.28 z"
         inkscape:connector-curvature="0"
         style="fill:#050000" />
      <path
         id="path8444"
         d="m 445.2,381.22 c 0.04,-1.66 1.48,-3.85 3.19,-2.26 -0.58,1.31 -1.83,2.03 -3.19,2.26 z"
         inkscape:connector-curvature="0"
         style="fill:#050000" />
      <path
         id="path8446"
         d="m 441.27,384.32 c -0.69,-1.51 1.29,-3.03 2.14,-1.26 -0.53,0.31 -1.6,0.95 -2.14,1.26 z"
         inkscape:connector-curvature="0"
         style="fill:#050000" />
      <path
         id="path8448"
         d="m 218.91,384.06 c 1.52,-0.48 3.03,0.53 2.94,2.19 -1.39,-0.01 -2.56,-0.86 -2.94,-2.19 z"
         inkscape:connector-curvature="0"
         style="fill:#000000" />
      <path
         id="path8450"
         d="m 438.47,385.93 c 0.08,-0.07 0.24,-0.2 0.32,-0.26 l -0.32,0.26 z"
         inkscape:connector-curvature="0"
         style="fill:#000000" />
      <path
         id="path8452"
         d="m 222.95,386.95 c 0.47,0.34 1.42,1.01 1.89,1.35 -0.47,-0.34 -1.42,-1.01 -1.89,-1.35 z"
         inkscape:connector-curvature="0"
         style="fill:#010000" />
      <path
         id="path8454"
         d="m 435.28,387.29 c 0.51,0.52 0.51,0.52 0,0 z"
         inkscape:connector-curvature="0"
         style="fill:#000000" />
      <path
         id="path8456"
         d="m 432.27,389.3 c 0.51,0.51 0.51,0.51 0,0 z"
         inkscape:connector-curvature="0"
         style="fill:#000000" />
      <path
         id="path8458"
         d="m 429.51,391.94 c 0.09,-0.06 0.27,-0.16 0.36,-0.21 l -0.36,0.21 z"
         inkscape:connector-curvature="0"
         style="fill:#000000" />
      <path
         id="path8460"
         d="m 424.5,394.97 c 0.09,-0.05 0.27,-0.15 0.37,-0.2 l -0.37,0.2 z"
         inkscape:connector-curvature="0"
         style="fill:#1e0000" />
      <path
         id="path8462"
         d="m 267.96,409.8 c 2.37,0.61 4.8,0.94 7.23,1.23 13.26,3.98 26.95,6.75 40.8,7.26 5.54,0.72 11.15,1.08 16.72,0.45 13.46,1.02 26.77,-1.72 39.92,-4.21 0.89,0.85 1.73,1.75 2.54,2.7 -2.1,-0.4 -4.15,-0.94 -6.21,-1.45 0.69,0.82 1.39,1.65 2.09,2.48 -3.82,-1.6 -7.86,-0.8 -11.79,-0.21 0.14,0.51 0.42,1.55 0.56,2.07 -2.35,-0.73 -5.43,-2.37 -7.21,0.25 -2.97,-0.42 -6.03,-1.05 -8.77,0.6 -0.71,0 -2.12,0.02 -2.83,0.03 -6.55,-0.13 -13.13,-0.37 -19.67,0.11 -3.13,-0.14 -6.26,-0.01 -9.38,-0.15 -12.12,-1.37 -24.35,-2.93 -35.97,-6.73 -2.42,-1.99 -5.95,-1.97 -8.03,-4.43 z"
         inkscape:connector-curvature="0"
         style="fill:#ffbbb4" />
      <path
         id="path8464"
         d="m 341.01,421 c 0.71,-0.01 2.12,-0.03 2.83,-0.03 -0.21,1.72 -2.57,1.72 -2.83,0.03 z"
         inkscape:connector-curvature="0"
         style="fill:#180000" />
      <path
         id="path8466"
         d="m 318.87,426.97 c 4.12,-0.59 8.04,1.16 12.14,1.04 3.36,0.04 6.59,1.37 9.99,1.03 8.66,-0.41 17.45,0.83 25.98,-1.02 4.45,0.26 8.7,-1.66 13.16,-1.08 l -0.3,0.86 c -5.94,0.88 -11.91,1.2 -17.82,2.17 -8.35,0.03 -16.7,0.03 -25.04,0 -5.89,-1.03 -11.85,-1.33 -17.77,-2.19 l -0.34,-0.81 z"
         inkscape:connector-curvature="0"
         style="fill:#330000" />
    </g>
  </g>
  <g
     id="layer1"
     inkscape:label="Layer 1"
     inkscape:groupmode="layer">
    <text
       xml:space="preserve"
       style="font-size:20px;font-style:normal;font-variant:normal;font-weight:bold;font-stretch:normal;text-align:start;line-height:125%;letter-spacing:0px;word-spacing:0px;writing-mode:lr-tb;text-anchor:start;fill:#000000;fill-opacity:1;stroke:none;font-family:Skia;-inkscape-font-specification:Skia Bold"
       x="10.492375"
       y="12.662309"
       id="text3047"
       sodipodi:linespacing="125%"><tspan
         sodipodi:role="line"
         id="tspan3049"
         x="10.492375"
         y="12.662309" /></text>
    <text
       xml:space="preserve"
       style="font-size:48px;font-style:normal;font-variant:normal;font-weight:bold;font-stretch:normal;text-align:start;line-height:125%;letter-spacing:0px;word-spacing:0px;writing-mode:lr-tb;text-anchor:start;fill:#000000;fill-opacity:1;stroke:none;font-family:Skia;-inkscape-font-specification:Skia Bold"
       x="10.867102"
       y="49.760349"
       id="text5294"
       sodipodi:linespacing="125%"><tspan
         sodipodi:role="line"
         id="tspan5296"
         x="10.867102"
         y="49.760349" /></text>
    <a
       id="a5318"
       transform="translate(-10.258702,-54.10943)"
       style="fill:#ffffff;fill-opacity:1;stroke:none">
      <text
         xml:space="preserve"
         style="font-size:43.66094971px;font-style:normal;font-variant:normal;font-weight:bold;font-stretch:normal;text-align:start;line-height:125%;letter-spacing:0px;word-spacing:0px;writing-mode:lr-tb;text-anchor:start;fill:#ffffff;fill-opacity:1;stroke:none;font-family:Skia;-inkscape-font-specification:Skia Bold"
         x="10.207426"
         y="61.713783"
         id="text5302"
         sodipodi:linespacing="125%"
         transform="scale(1.0050234,0.99500171)"><tspan
           sodipodi:role="line"
           x="10.207426"
           y="61.713783"
           id="tspan5306"
           style="font-size:18px;font-style:normal;font-variant:normal;font-weight:normal;font-stretch:normal;text-align:start;line-height:125%;writing-mode:lr-tb;text-anchor:start;fill:#ffffff;fill-opacity:1;stroke:none;font-family:Savoye LET;-inkscape-font-specification:Savoye LET" /></text>
    </a>
    <flowRoot
       xml:space="preserve"
       id="flowRoot8637"
       style="fill:black;stroke:none;stroke-opacity:1;stroke-width:1px;stroke-linejoin:miter;stroke-linecap:butt;fill-opacity:1;font-family:Sinhala Sangam MN;font-style:normal;font-weight:normal;font-size:48px;line-height:125%;letter-spacing:0px;word-spacing:0px;-inkscape-font-specification:Sinhala Sangam MN;font-stretch:normal;font-variant:normal;text-anchor:start;text-align:start;writing-mode:lr"><flowRegion
         id="flowRegion8639"><rect
           id="rect8641"
           width="55.379246"
           height="56.174164"
           x="16.163321"
           y="32.203304"
           style="-inkscape-font-specification:Sinhala Sangam MN;font-family:Sinhala Sangam MN;font-weight:normal;font-style:normal;font-stretch:normal;font-variant:normal;font-size:48px;text-anchor:start;text-align:start;writing-mode:lr;line-height:125%" /></flowRegion><flowPara
         id="flowPara8645"></flowPara></flowRoot>  </g>
  <g
     inkscape:groupmode="layer"
     id="layer2"
     inkscape:label="Layer" />
  <g
     inkscape:groupmode="layer"
     id="layer3"
     inkscape:label="Layer#1" />
</svg>
